<?xml version="1.0" encoding="iso-8859-1"?>
<!-- Generator: Adobe Illustrator 13.0.2, SVG Export Plug-In . SVG Version: 6.00 Build 14948)  -->
<!DOCTYPE svg PUBLIC "-//W3C//DTD SVG 1.1//EN" "http://www.w3.org/Graphics/SVG/1.1/DTD/svg11.dtd">
<svg version="1.1" id="santa_xA0_Image_1_" xmlns="http://www.w3.org/2000/svg" xmlns:xlink="http://www.w3.org/1999/xlink" x="0px"
	 y="0px" width="137.28px" height="121.92px" viewBox="0 0 137.28 121.92" style="enable-background:new 0 0 137.28 121.92;"
	 xml:space="preserve">
<g>
	<path style="fill-rule:evenodd;clip-rule:evenodd;" d="M71.04,8.88c0.698,0.004,0.567,1.356,0.24,1.68
		C70.913,10.226,70.598,9.318,71.04,8.88z"/>
	<path style="fill-rule:evenodd;clip-rule:evenodd;" d="M72.48,8.88c-0.278,1.173,1.287,1.468,2.4,1.92
		C73.573,11.725,71.489,10.272,72.48,8.88z"/>
	<path style="fill-rule:evenodd;clip-rule:evenodd;" d="M64.8,9.12c0.16,0,0.32,0,0.48,0c-0.044,0.204,0.094,0.226,0.24,0.24
		c0,0.16,0,0.32,0,0.48c-0.204-0.044-0.227,0.094-0.24,0.24c-0.16,0-0.32,0-0.48,0c0.044-0.204-0.093-0.227-0.24-0.24
		c0-0.16,0-0.32,0-0.48C64.764,9.404,64.787,9.267,64.8,9.12z"/>
	<path style="fill-rule:evenodd;clip-rule:evenodd;" d="M63.36,9.36c0.388-0.067,0.413,0.227,0.72,0.24
		c-0.046,0.194-0.241,0.239-0.24,0.48c-0.16,0-0.32,0-0.48,0C63.36,9.84,63.36,9.6,63.36,9.36z"/>
	<path style="fill-rule:evenodd;clip-rule:evenodd;" d="M66,9.36c0.914-0.179,0.519,1.554-0.24,1.2
		C65.684,10.003,65.798,9.639,66,9.36z"/>
	<path style="fill-rule:evenodd;clip-rule:evenodd;" d="M68.88,9.6c0.371-0.734,0.211,1.041,0.24,1.44
		C68.749,11.773,68.909,9.999,68.88,9.6z"/>
	<path style="fill-rule:evenodd;clip-rule:evenodd;" d="M68.4,10.08c0.077,0.557-0.039,0.921-0.24,1.2
		c-0.352-0.208-0.761-0.359-0.72-0.96C67.654,10.134,67.982,10.062,68.4,10.08z"/>
	<path style="fill-rule:evenodd;clip-rule:evenodd;" d="M72.48,10.8c-0.036,0.827-1.076,1.444-1.68,0.96
		C70.928,10.84,71.736,10.457,72.48,10.8z"/>
	<path style="fill-rule:evenodd;clip-rule:evenodd;" d="M87.84,11.28c0.61,0.029,0.931,0.35,0.96,0.96
		c-1.074-0.034-0.69,1.39-1.2,1.92C86.177,13.439,87.431,12.168,87.84,11.28z"/>
	<path style="fill-rule:evenodd;clip-rule:evenodd;" d="M73.44,12.48c-0.502,0.102-0.636-0.165-0.96-0.24
		c0.127-0.193,0.25-0.39,0.24-0.72C73.352,11.448,73.507,11.853,73.44,12.48z"/>
	<path style="fill-rule:evenodd;clip-rule:evenodd;" d="M75.12,12c0.24,0,0.48,0,0.721,0c0.466,0.913-0.457,1.775,1.199,1.2
		c0.268,1.227-1.036,0.884-1.68,1.2C75.528,13.352,74.952,13.048,75.12,12z"/>
	<path style="fill-rule:evenodd;clip-rule:evenodd;" d="M74.4,12.24c0.072,0.632-0.332,0.788-0.96,0.72
		C73.368,12.328,73.772,12.172,74.4,12.24z"/>
	<path style="fill-rule:evenodd;clip-rule:evenodd;" d="M77.76,12.24c0.61,0.024,0.566,0.894,0.239,1.2
		c-0.351-0.208-0.76-0.359-0.72-0.96C77.559,12.519,77.707,12.427,77.76,12.24z"/>
	<path style="fill-rule:evenodd;clip-rule:evenodd;" d="M61.92,12.48c0.388-0.067,0.413,0.227,0.72,0.24
		C62.735,13.186,61.547,13.071,61.92,12.48z"/>
	<path style="fill-rule:evenodd;clip-rule:evenodd;" d="M58.08,13.2c-0.044,0.737-1.292,0.503-1.2-0.24
		C57.379,12.439,57.656,12.989,58.08,13.2z"/>
	<path style="fill-rule:evenodd;clip-rule:evenodd;" d="M54.72,12.96c0.24,0,0.48,0,0.72,0c0.068,0.388-0.227,0.413-0.24,0.72
		c-0.16,0-0.32,0-0.48,0C54.72,13.44,54.72,13.2,54.72,12.96z"/>
	<path style="fill-rule:evenodd;clip-rule:evenodd;" d="M73.68,13.2c1.577-0.091,1.132,1.544,0.72,2.4
		c-0.755,0.035-0.824-0.616-0.96-1.2c0.431-0.03,0.506,0.294,0.96,0.24C74.266,14.054,73.471,14.128,73.68,13.2z"/>
	<path style="fill-rule:evenodd;clip-rule:evenodd;" d="M78.96,13.2c1.067-0.336,1.299,1.101,0.239,0.96
		C79.23,13.729,78.906,13.654,78.96,13.2z"/>
	<path style="fill-rule:evenodd;clip-rule:evenodd;" d="M76.32,16.56c1.291-0.409,0.785-1.799,1.2-2.64
		c0.193,0.127,0.39,0.25,0.72,0.24c-0.382,1.572-0.034,1.498-0.96,2.88c0.8,0.323,1.685-0.953,2.641-0.72
		c0.175,1.432-1.653,1.687-2.881,1.92c-0.554,0.105-1.846,1.026-1.68-0.24c0.557,0.077,0.922-0.039,1.2-0.24
		c-0.073-0.629-1.693-0.23-0.96-0.96c-1.042,0.654-2.676,0.489-3.36-0.48c-1.464,0.376-2.864,0.815-4.32,1.2
		c0.673-0.921,0.097-0.519-0.24-1.44c0.771,0.21,0.498-0.623,0.96-0.72c0.512-0.112,0.457,0.343,0.48,0.72
		c2.455-1.094,4.263-0.008,6.48-0.24C76.154,15.767,75.867,16.533,76.32,16.56z"/>
	<path style="fill-rule:evenodd;clip-rule:evenodd;" d="M63.36,14.16c0.623-0.07,0.834,1.623-0.24,1.2
		C62.922,14.682,63.458,14.738,63.36,14.16z"/>
	<path style="fill-rule:evenodd;clip-rule:evenodd;" d="M67.44,14.64c-0.107,0.773-0.366,1.394-1.44,1.2
		C65.722,14.699,66.647,13.967,67.44,14.64z"/>
	<path style="fill-rule:evenodd;clip-rule:evenodd;" d="M57.84,14.88c0.502-0.102,0.636,0.165,0.96,0.24
		C58.876,15.543,57.456,15.548,57.84,14.88z"/>
	<path style="fill-rule:evenodd;clip-rule:evenodd;" d="M75.84,15.84c-0.472-0.449-0.14-1.156,0.72-0.96
		C76.627,15.508,76.472,15.912,75.84,15.84z"/>
	<path style="fill-rule:evenodd;clip-rule:evenodd;" d="M78.96,14.88c0.465-0.095,0.351,1.093-0.24,0.72c0-0.16,0-0.32,0-0.48
		C78.924,15.164,78.947,15.026,78.96,14.88z"/>
	<path style="fill-rule:evenodd;clip-rule:evenodd;" d="M55.68,15.12c0.213,0.187,0.542,0.258,0.96,0.24
		c-0.198,0.678,0.338,0.622,0.24,1.2c-0.32,0-0.64,0-0.96,0C56.093,15.827,55.675,15.686,55.68,15.12z"/>
	<path style="fill-rule:evenodd;clip-rule:evenodd;" d="M51.12,15.36c-0.316,0.564-0.576,1.185-1.44,1.2
		C49.648,15.648,50.308,15.428,51.12,15.36z"/>
	<path style="fill-rule:evenodd;clip-rule:evenodd;" d="M53.76,15.84c0.458,0.101,1.033,0.087,0.96,0.72
		c-1.241-0.121-1.208,1.033-2.64,0.72C52.292,16.451,53.946,17.066,53.76,15.84z"/>
	<path style="fill-rule:evenodd;clip-rule:evenodd;" d="M85.2,17.52c-0.073,0.806,0.32,2.081-0.72,1.92
		c1.08,0.759,2.819-0.125,3.84,1.2c0.407-0.473,1.67-0.09,1.68-0.96c-0.457-0.748-1.042,0.375-1.68,0.24
		c-0.55-0.444,1.061-1.414-0.72-1.2c-0.222-1.125-0.718-1.503-0.48-2.4c0.798-0.078,0.261,1.18,1.44,0.72
		c-0.513,0.49,0.067,0.95,0.24,1.44c1.272-0.312,1.225,0.695,2.399,0.48c-0.324,2.163,3.021,2.305,3.12,4.8
		c-0.563,0.389-1.453-0.5-1.439-1.44c-0.583,0.038-1.854-0.861-2.641-0.48c-0.296,0.134,0.179,0.929-0.96,0.72
		c0.003-1.037,0.921-1.159,1.44-1.68c-0.599-0.66-1.732,0.174-1.92,0.72c-0.581-0.299-1.166-0.594-1.92-0.72
		c-0.983,0.457-1.345,1.535-3.12,1.2c-0.346,0.134-0.586,0.374-0.721,0.72c-0.051,1.011,1.075,0.846,1.44,1.44
		c1.227-0.693,1.511-2.329,3.84-1.92c0.072,0.632-0.332,0.788-0.96,0.72c0.736,0.144,0.951,0.809,1.68,0.96
		c0.843-0.066-0.602-0.894,0.24-0.96c1.097-0.008,0.013,0.842,0.24,1.44c-1.543,0.343-1.552-0.848-2.64-0.96
		c-0.245,1.275-1.935,1.106-2.881,1.68c-0.86-0.704-2.01-1.416-3.359-0.96c-0.619,0.021-0.253,1.027-1.2,0.72c0-0.56,0-1.12,0-1.68
		c2.696,0.457,3.376-1.104,4.32-2.4c-0.389-0.733-1.155,0.798-1.681,0c0.059-0.982,1.002-1.079,1.92-1.2
		c0.849-0.553-0.077-1.472,0.721-2.16c-0.027-0.454-0.794-0.167-0.721-0.72c-0.399,0.24-0.17,1.11-0.72,1.2
		c-0.961,0.128-0.014-1.736-0.479-0.96c-0.992-0.909,2.333-1.066,2.399-0.24c0.326-0.074,0.199-0.601,0.24-0.96
		c0.733-0.173,0.875,0.246,1.44,0.24C86.84,17.08,85.637,16.917,85.2,17.52z M84.48,21.6c0.1-0.541,1.316,0.036,1.2-0.72
		C84.963,20.667,83.715,21.125,84.48,21.6z"/>
	<path style="fill-rule:evenodd;clip-rule:evenodd;" d="M65.76,16.32c-0.199,0.665-1.411,1.109-1.92,0.72
		C64.027,16.494,65.162,15.66,65.76,16.32z"/>
	<path style="fill-rule:evenodd;clip-rule:evenodd;" d="M59.76,17.28c-0.32,0-0.64,0-0.96,0
		C58.611,16.356,59.949,16.356,59.76,17.28z"/>
	<path style="fill-rule:evenodd;clip-rule:evenodd;" d="M57.6,18.24c1.58-1.073,3.751-0.725,5.04,0.48
		c1.743-0.859,3.573-1.21,5.52-0.72c-0.831,0.904-0.137,1.87-1.44,2.16c1.584,1.009,2.49-0.535,3.84-0.48
		c-0.245,0.955-1.214,1.186-1.92,1.68c-1.624-0.933-3.189,0.832-5.04-0.24c-0.198-0.678,0.338-0.622,0.24-1.2
		c1.339-0.021,2.843,0.124,3.36-0.72c-1.141-1.09-3.734-0.259-4.32,0.72c-1.094-0.746-2.37-1.31-4.08-1.44
		c-0.52-0.041-0.108,0.851-0.24,1.2c-1.391-1.303-6.739-1.552-6.48,0.72c-0.896,0.022-0.684,0.269-1.44,0
		c-0.041-0.989,1.073-0.451,0.48-1.44C52.626,17.726,56.226,17.004,57.6,18.24z"/>
	<path style="fill-rule:evenodd;clip-rule:evenodd;" d="M85.92,17.52c0.239,0,0.479,0,0.72,0c0,0.32,0,0.64,0,0.96
		C85.839,18.721,85.853,18.147,85.92,17.52z"/>
	<path style="fill-rule:evenodd;clip-rule:evenodd;" d="M72.24,18.24c0.091,1.098-0.766,1.248-1.439,0.96
		C70.832,18.432,71.344,18.144,72.24,18.24z"/>
	<path style="fill-rule:evenodd;clip-rule:evenodd;" d="M83.76,18.48c0.061,1.247-1.505,0.571-1.92,0.24
		C82.112,17.736,82.904,18.663,83.76,18.48z"/>
	<path style="fill-rule:evenodd;clip-rule:evenodd;" d="M46.32,18.72c0.193,0.127,0.39,0.25,0.72,0.24
		c-0.133,0.427-0.124,0.997-0.48,1.2C45.59,20.097,45.854,19.079,46.32,18.72z"/>
	<path style="fill-rule:evenodd;clip-rule:evenodd;" d="M55.68,19.68c-0.738,0.862-2.403,0.796-3.12,1.68
		c-0.031,0.431,0.294,0.506,0.24,0.96c-1.432,1.208-1.269,4.011-4.08,3.84c-0.209,0.929,1.048,0.392,0.72,1.44
		c-0.679-0.296-1.481-0.296-2.16,0c-0.01,0.411,0.179,0.622,0.48,0.72c-0.104,0.537-1.183,0.097-1.68,0.24
		c-0.219-1.019,0.392-1.208,0.96-1.44c-0.7-0.771,0.547-1.049,0.72-1.68c-0.929-0.128-1.172,0.428-2.16,0.24
		c0.104-0.937,0.986-1.094,2.16-0.96c0.739-0.911,0.992-3.146,2.64-2.4c0.587-0.566-0.358-0.446-0.24-1.2
		c0.716-0.287,0.816-0.066,1.44,0.24C52.78,20.777,53.915,18.879,55.68,19.68z M48.96,24.72c1.12,0,1.949-0.291,1.92-1.44
		C49.799,22.497,48.986,23.687,48.96,24.72z"/>
	<path style="fill-rule:evenodd;clip-rule:evenodd;" d="M81.84,19.44c0,0.24,0,0.48,0,0.72C81.14,20.513,81.14,19.087,81.84,19.44z"
		/>
	<path style="fill-rule:evenodd;clip-rule:evenodd;" d="M59.52,19.68c0.862,0.098,1.859,0.061,2.16,0.72
		C61.423,21.74,59.455,20.779,59.52,19.68z"/>
	<path style="fill-rule:evenodd;clip-rule:evenodd;" d="M59.04,19.92c-0.139,0.779,0.164,1.117,0.24,1.68
		C58.519,21.48,57.216,19.878,59.04,19.92z"/>
	<path style="fill-rule:evenodd;clip-rule:evenodd;" d="M44.4,20.64c0.482-0.082,0.751,0.049,0.72,0.48c-0.24,0-0.48,0-0.72,0
		C44.4,20.96,44.4,20.8,44.4,20.64z"/>
	<path style="fill-rule:evenodd;clip-rule:evenodd;" d="M56.4,20.64c0.295,0.104,0.493,0.307,0.48,0.72
		c-0.962,0.718-2.437,0.923-3.36,1.68c-0.791-0.676,0.874-1.841,1.44-1.2c0-0.32,0-0.64,0-0.96
		C55.382,20.742,56.37,21.17,56.4,20.64z"/>
	<path style="fill-rule:evenodd;clip-rule:evenodd;" d="M77.52,25.92c-1.277-0.083-1.097-1.624-1.92-2.16
		c-0.729,0.296,0.26,0.826,0,1.44c-1.077,0.327-1.165-0.967-0.72-1.44c-0.73,0.01-1.58,0.14-1.44-0.72
		c0.726-0.075,1.866,0.267,1.92-0.48c-0.185-1.048-1.84,0.617-1.68-0.96c-1.567,0.686-1.646-0.06-3.601,0.24
		c-0.168-0.888,0.842-0.599,1.2-0.96c0.408-0.088,0.453,0.188,0.48,0.48c1.28-0.857,3.252-0.817,4.319,0.24
		C76.179,23.421,77.917,23.603,77.52,25.92z"/>
	<path style="fill-rule:evenodd;clip-rule:evenodd;" d="M86.64,21.36c0.24,0,0.479,0,0.72,0c0,0.24,0,0.48,0,0.72
		c-0.24,0-0.479,0-0.72,0C86.64,21.84,86.64,21.6,86.64,21.36z"/>
	<path style="fill-rule:evenodd;clip-rule:evenodd;" d="M84.48,22.56c0.32,0,0.64,0,0.96,0C85.72,23.393,84.099,23.676,84.48,22.56z
		"/>
	<path style="fill-rule:evenodd;clip-rule:evenodd;" d="M56.4,23.04c-0.54,1.21-1.749,1.057-2.64,1.44
		C53.899,23.259,54.991,22.991,56.4,23.04z"/>
	<path style="fill-rule:evenodd;clip-rule:evenodd;" d="M90.72,23.04c0.497,0.143,1.576-0.297,1.68,0.24
		C92.546,24.162,90.337,23.922,90.72,23.04z"/>
	<path style="fill-rule:evenodd;clip-rule:evenodd;" d="M57.6,24.96c-0.877,0.049-1.771,0.934-2.4,0.48
		C55.271,24.609,57.529,23.581,57.6,24.96z"/>
	<path style="fill-rule:evenodd;clip-rule:evenodd;" d="M87.6,24.72c0.565-0.005,0.706,0.413,1.439,0.24
		C89.078,25.939,87.327,25.873,87.6,24.72z"/>
	<path style="fill-rule:evenodd;clip-rule:evenodd;" d="M78.96,28.08c-1.88,0.711-3.707-0.578-3.601-2.64
		c1.124-0.519,0.686,0.848,0.96,1.2c0.767,0.983,1.573,1.219,3.12,0.72c0.274,0.926,1.034,1.366,1.2,2.4c0.399,0,0.8,0,1.2,0
		c-1.326,1.089,0.88,0.661,0.72,1.92C80.383,31.457,79.555,29.885,78.96,28.08z"/>
	<path style="fill-rule:evenodd;clip-rule:evenodd;" d="M65.52,27.12c-1.439,0.667-1.479-0.093-3.12,0.24
		c-0.127-0.193-0.25-0.39-0.24-0.72C62.826,26.405,65.574,25.865,65.52,27.12z"/>
	<path style="fill-rule:evenodd;clip-rule:evenodd;" d="M40.8,26.88c0,0.24,0,0.48,0,0.72c-0.655,0.175-0.483-0.477-0.96-0.48
		C40.049,26.422,40.199,26.85,40.8,26.88z"/>
	<path style="fill-rule:evenodd;clip-rule:evenodd;" d="M51.36,26.64c0.153,0.873-0.497,0.943-1.2,0.96c0-0.24,0-0.48,0-0.72
		C50.438,26.679,50.803,26.563,51.36,26.64z"/>
	<path style="fill-rule:evenodd;clip-rule:evenodd;" d="M69.12,26.64c0.831-0.168,0.861,0.841,0.48,1.2
		C68.769,28.008,68.739,26.999,69.12,26.64z"/>
	<path style="fill-rule:evenodd;clip-rule:evenodd;" d="M83.04,28.08c-0.005-0.565,0.414-0.707,0.24-1.44
		c1.404,0.246,1.748,0.609,2.88,0.72c-0.575,0.67-1.059,0.336-0.96,1.68C84.494,28.296,83.885,28.229,83.04,28.08z"/>
	<path style="fill-rule:evenodd;clip-rule:evenodd;" d="M90.72,26.64c0.627-0.068,1.032,0.087,0.96,0.72
		C91.053,27.427,90.479,27.441,90.72,26.64z"/>
	<path style="fill-rule:evenodd;clip-rule:evenodd;" d="M88.08,27.36c0.16,0,0.32,0,0.48,0c-0.044,0.204,0.094,0.227,0.24,0.24
		c0,0.16,0,0.32,0,0.48c-0.204-0.044-0.227,0.094-0.24,0.24c-0.16,0-0.32,0-0.48,0c0.045-0.204-0.093-0.226-0.239-0.24
		c0-0.16,0-0.32,0-0.48C88.044,27.644,88.066,27.506,88.08,27.36z"/>
	<path style="fill-rule:evenodd;clip-rule:evenodd;" d="M65.76,27.6c-0.144,0.624,0.096,0.864,0.72,0.72
		c0.102,0.502-0.165,0.636-0.24,0.96c-0.866,0.066-0.651-0.949-1.44-0.96C65.009,27.969,65.159,27.559,65.76,27.6z"/>
	<path style="fill-rule:evenodd;clip-rule:evenodd;" d="M67.92,27.6c0.632-0.072,0.788,0.332,0.72,0.96
		c-1.048-0.328-0.511,0.929-1.44,0.72C66.441,28.45,67.896,28.38,67.92,27.6z"/>
	<path style="fill-rule:evenodd;clip-rule:evenodd;" d="M48.48,27.84c0.16,0,0.32,0,0.48,0c-0.044,0.204,0.094,0.227,0.24,0.24
		c0,0.16,0,0.32,0,0.48c-0.204-0.044-0.227,0.094-0.24,0.24c-0.16,0-0.32,0-0.48,0c0.044-0.204-0.094-0.226-0.24-0.24
		c0-0.16,0-0.32,0-0.48C48.444,28.124,48.466,27.986,48.48,27.84z"/>
	<path style="fill-rule:evenodd;clip-rule:evenodd;" d="M56.16,28.56c-0.019,0.781-1.088,0.512-1.68,0.72
		c-0.03,0.431,0.294,0.506,0.24,0.96c-1.152,0.495-2.554,1.861-3.6,1.68c0.488-1.111,1.614-1.586,2.88-1.92
		c0.03-0.431-0.294-0.506-0.24-0.96C54.192,28.66,55.433,27.849,56.16,28.56z"/>
	<path style="fill-rule:evenodd;clip-rule:evenodd;" d="M44.64,28.56c0.24,0,0.48,0,0.72,0c0,0.32,0,0.64,0,0.96
		C44.559,29.761,44.573,29.187,44.64,28.56z"/>
	<path style="fill-rule:evenodd;clip-rule:evenodd;" d="M77.04,28.8c0.335-0.624,1.242,0.175,1.681,0.24
		C78.385,29.664,77.478,28.865,77.04,28.8z"/>
	<path style="fill-rule:evenodd;clip-rule:evenodd;" d="M88.8,29.04c0.227,0.867-0.945,0.335-1.44,0.48c0-0.24,0-0.48,0-0.72
		C87.748,28.391,88.597,28.58,88.8,29.04z"/>
	<path style="fill-rule:evenodd;clip-rule:evenodd;" d="M46.08,29.52c0.708,0.346-0.286,0.966-0.96,0.72
		C45.017,29.577,46.015,30.015,46.08,29.52z"/>
	<path style="fill-rule:evenodd;clip-rule:evenodd;" d="M48,29.76c0.255,0.676-0.604,0.679-1.2,1.2
		c-0.9,0.786-0.843,0.854-2.16,1.44c-0.409,0.182-0.494,0.627-0.72,0.72c-0.344,0.14-0.853-0.133-1.2,0
		c-0.776,0.298-2.311,1.547-2.4,0c0.743-0.538,2.404-0.156,2.4-1.44c0.836,0.445,1.727-0.639,2.16-0.72
		c0.291-0.055,0.654,0.399,0.48,0.48C46.404,30.952,46.423,29.321,48,29.76z"/>
	<path style="fill-rule:evenodd;clip-rule:evenodd;" d="M42,30.72c0.556,0.067,0.552,0.641,0.24,0.96
		C41.684,31.613,41.688,31.039,42,30.72z"/>
	<path style="fill-rule:evenodd;clip-rule:evenodd;" d="M78.48,31.2c-0.506,1.094-2.593,0.607-3.6,1.2
		C74.174,31.145,77.616,30.868,78.48,31.2z"/>
	<path style="fill-rule:evenodd;clip-rule:evenodd;" d="M81.36,32.16c-0.975,0.094-1.672-0.088-1.68-0.96
		C80.566,31.194,81.333,31.308,81.36,32.16z"/>
	<path style="fill-rule:evenodd;clip-rule:evenodd;" d="M53.52,31.68c-0.332,1.028-1.595,1.125-2.64,1.44
		C51.261,32.141,52.496,32.016,53.52,31.68z"/>
	<path style="fill-rule:evenodd;clip-rule:evenodd;" d="M56.64,31.68c0.305,0.808-1.217,0.992-1.44,0.48
		C54.973,31.292,56.145,31.825,56.64,31.68z"/>
	<path style="fill-rule:evenodd;clip-rule:evenodd;" d="M61.2,32.16c0.088,0.728-0.782,0.498-1.2,0.72
		C59.631,32.009,60.88,31.55,61.2,32.16z"/>
	<path style="fill-rule:evenodd;clip-rule:evenodd;" d="M94.56,31.92c1.072-0.112,1.321,0.599,1.68,1.2
		c-0.638-0.002-1.37,0.09-1.68-0.24C94.56,32.56,94.56,32.24,94.56,31.92z"/>
	<path style="fill-rule:evenodd;clip-rule:evenodd;" d="M80.4,32.4c0.431-0.03,0.506,0.294,0.96,0.24
		c0.313,2.807,2.259,3.981,4.561,4.8C82.984,37.814,80.977,35.184,80.4,32.4z"/>
	<path style="fill-rule:evenodd;clip-rule:evenodd;" d="M46.56,32.88c-0.526,2.141-1.534,5.998-4.56,4.08
		c1.42-0.34,3.351-0.169,2.88-2.4c-0.404-0.677-1.102,0.922-1.68,0c0.584-0.936,2.318-0.722,2.64-1.92
		C46.228,32.572,46.253,32.867,46.56,32.88z"/>
	<path style="fill-rule:evenodd;clip-rule:evenodd;" d="M54.96,32.64c-0.194,1.006-0.507,1.893-1.68,1.92
		C53.499,33.579,54.016,32.896,54.96,32.64z"/>
	<path style="fill-rule:evenodd;clip-rule:evenodd;" d="M76.8,32.88c-0.219,0.502-0.709,0.732-1.44,0.72c0-0.24,0-0.48,0-0.72
		C75.667,32.552,76.493,32.552,76.8,32.88z"/>
	<path style="fill-rule:evenodd;clip-rule:evenodd;" d="M78,32.64c0.769,0.272,1.682,0.399,1.681,1.44
		C78.783,33.938,77.975,33.705,78,32.64z"/>
	<path style="fill-rule:evenodd;clip-rule:evenodd;" d="M52.56,33.36c0.034,0.995-1.19,0.729-1.92,0.96
		C50.454,33.174,51.621,33.381,52.56,33.36z"/>
	<path style="fill-rule:evenodd;clip-rule:evenodd;" d="M68.4,34.8c-0.388,0.068-0.413-0.227-0.72-0.24
		c-0.072-0.632,0.332-0.788,0.96-0.72C68.742,34.342,68.476,34.476,68.4,34.8z"/>
	<path style="fill-rule:evenodd;clip-rule:evenodd;" d="M104.88,34.32c0.501-0.102,0.635,0.165,0.96,0.24
		c-0.271,1.966-2.921,2.573-5.04,1.92c-0.891-0.027-1.405,1.115-2.16,0.48c-0.431-1.311,1.282-0.478,0.96-1.68
		C101.11,35.733,104.481,36.699,104.88,34.32z"/>
	<path style="fill-rule:evenodd;clip-rule:evenodd;" d="M48,34.56c-0.238,0.961-1.282,1.118-1.68,1.92
		c0.158,0.719,0.513-0.229,0.96,0c-0.858,1.259-0.99,3.359-2.16,4.08c-1.707,1.052-2.72-0.509-4.8-0.96
		c-0.864-0.145-0.707,0.732-1.44,0.72c0.556-1.356-1.065-0.535-0.96-1.44c2.366-0.429,4.425,0.176,5.52,1.44
		c0.561-0.079,0.992-0.288,1.44-0.48c-0.053-0.747-1.194-0.405-1.92-0.48c0.734-0.865,2.914-0.286,3.12-1.68
		c-0.979,0.25-4.276,1.83-4.56-0.24c1.184,0.034,1.612,0.567,2.4,0.48C46.034,37.686,45.703,34.729,48,34.56z"/>
	<path style="fill-rule:evenodd;clip-rule:evenodd;" d="M52.32,34.8c-0.035,0.525-0.604,0.516-1.2,0.48
		C50.952,34.449,51.961,34.419,52.32,34.8z"/>
	<path style="fill-rule:evenodd;clip-rule:evenodd;" d="M33.84,35.52c0.4,0,0.8,0,1.2,0c0.103,1.063-0.4,1.52-1.2,1.68
		C33.59,36.52,33.59,36.2,33.84,35.52z"/>
	<path style="fill-rule:evenodd;clip-rule:evenodd;" d="M83.04,42.96c0.175-0.886,1.369,0.749,1.2-0.48
		c0.663-0.103,0.226,0.895,0.721,0.96c0.799-0.893-0.453-1.777-0.721-2.4c-0.682-0.042,0.29,1.57-0.72,1.2
		c-0.239-1.142-1.284-2.141-0.72-3.36c0.505-0.527,1.066-0.049,1.439,0.24c-0.135-1.625-2.937-0.584-2.64-2.64
		c1.261,0.179,1.735,1.144,2.88,1.44c0.44,1.88,2.601,2.039,3.12,3.84c-1.208-0.072-1.082-1.478-2.4-1.44
		c-0.153,1.274,1.216,1.025,1.681,1.68c-0.039,0.281-0.438,0.203-0.721,0.24c1.802,1.384,6.045,0.728,7.2-0.72
		c1.37-0.031,2.321-0.191,4.08,0c0.933,0.101,1.106,0.761,2.16,0.96c1.511,0.285,8.054-0.014,8.16-2.4
		c0.088-1.972-1.853-0.744-2.16-2.64c1.822-0.514,3.4,1,3.12,2.88c-0.361,2.423-4.821,3.446-9.12,2.88
		c-1.112-0.146-1.596-0.907-3.36-0.72c-2.624,0.278-6.249,3.439-9.6,1.2c1.821,3.293,7.475-0.695,9.84,0
		c0.592,0.174,2.169,1.48,0.72,2.16c-0.889,0.009-0.268-1.492-1.2-1.44c-2.612,0.587-5.193,1.206-7.199,2.4
		c2.456,1.223,4.713-0.804,7.439-0.48c0.482,0.49-0.105,0.471-0.24,0.96c1.34,0.98,3.852,0.789,4.32,2.64
		c1.373,0.707,2.793,1.367,4.08,2.16c2.377,0.246,6.544,0.417,7.2-1.92c0.011-0.731-0.507-0.934-0.72-1.44
		c0.033-0.847,0.687-1.073,0.72-1.92c1.51-0.665,3.089,0.174,5.04,0c1.371-0.122,2.914-0.955,4.56-0.72
		c0.847,0.121,1.35,0.688,2.16,0.72c2.154,0.085,4.83-0.926,4.561-3.36c-0.21-1.893-2.377-1.568-2.881-3.6
		c0.894-1.959,3.478-2.273,5.761-2.88c1.552-0.412,3.293-1.455,4.8-0.96c-0.451,1.354-2.235,0.955-3.36,1.2
		c-2.452,0.535-4.898,1.254-6.24,2.64c0.104,0.857,0.604,1.317,1.2,1.68c1.339-0.008,2.665-1.083,3.601-0.72
		c-0.072,1.208-1.797,0.763-2.641,1.2c1.009,2.048,5.291,2.047,4.801,4.8c-1.127-0.553-1.229-2.131-2.641-2.4
		c-0.627,4.021-5.737,4.812-9.84,4.56c0.639-1.438,2.63-0.502,4.08-0.72c2.657-0.398,5.956-2.136,4.56-4.56
		c-1.078-0.039-0.649,1.43-0.96,2.16c-1.095,1.105-2.332,1.645-4.319,1.68c-2.308,0.042-5.459-1.549-6.48,0.72
		c-1.637-0.697-3.378,0.418-4.56,0.96c-0.267-1.226,1.028-0.892,1.439-1.44c-0.38-0.594-1.679-0.098-2.16,0
		c0.039,0.279-0.053,0.427-0.239,0.48c3.245,5.286-4.595,7.199-9.12,5.76c0.355-1.135,1.8-0.239,2.64-0.24
		c1.77-0.002,3.587-0.146,4.8-0.72c-2.15-0.341-3.446,0.275-5.279,0c-2.524-0.378-4.51-2.389-6.96-2.88
		c-0.868-0.174-1.979-0.23-2.881-0.24c-1.889-0.021-4.514,0.898-5.76-0.96c0.834-0.783,1.442,0.432,2.4,0.48
		c1.769,0.089,3.89-0.94,5.76,0c-2.424-3.977-12.364,1.319-12.96-5.04c0.073-0.291-0.693-0.828-0.72-0.24
		C83.078,44.202,84.05,42.59,83.04,42.96z M84.48,40.56c0.453-0.481-0.295-1.116-0.96-1.2C83.047,39.861,83.726,40.564,84.48,40.56z
		 M90.96,43.68c1.032-0.248,1.96-0.6,2.64-1.2C92.618,42.778,91.395,42.835,90.96,43.68z M90.24,43.44
		C87.951,43.236,88.764,44.466,90.24,43.44L90.24,43.44z M85.44,44.4c0.029,1.602,2.72,2.584,3.6,1.2
		C87.199,45.946,86.468,44.088,85.44,44.4z M99.12,49.68c0.112-0.752-0.604-0.677-0.96-0.96
		C98.047,49.472,98.763,49.396,99.12,49.68z"/>
	<path style="fill-rule:evenodd;clip-rule:evenodd;" d="M52.8,36.48c0.628-0.068,1.033,0.088,0.96,0.72
		C53.133,37.267,52.559,37.281,52.8,36.48z"/>
	<path style="fill-rule:evenodd;clip-rule:evenodd;" d="M62.4,36.96c0.502-0.102,0.636,0.165,0.96,0.24
		c-0.882,2.361-3.944,2.592-6.24,1.44c-1.03,0.235-2.956,0.338-3.36-1.2c1.135,0.095,2.003-0.077,2.88-0.24
		c-0.105,0.295-0.307,0.493-0.72,0.48c0.256,0.949,0.728-0.061,1.44,0c0.779,0.494,2.374,1.06,3.12,0.24
		c0.477,0.003,0.305,0.655,0.96,0.48C61.789,37.741,63.045,37.991,62.4,36.96z"/>
	<path style="fill-rule:evenodd;clip-rule:evenodd;" d="M68.16,37.44c0.768,0.032,1.056,0.544,0.96,1.44
		C68.229,38.967,67.706,37.964,68.16,37.44z"/>
	<path style="fill-rule:evenodd;clip-rule:evenodd;" d="M48.48,37.68c-0.733,1.196,0.332,1.282-0.48,2.4
		c-0.592,0.032-1.156,0.036-1.44-0.24C47.076,38.996,47.114,37.674,48.48,37.68z"/>
	<path style="fill-rule:evenodd;clip-rule:evenodd;" d="M81.36,37.68c0.193,0.127,0.39,0.25,0.72,0.24
		c0.021,2.375,0.861,3.776-0.239,5.52c0.536,0.167,1.515,1.118,0.479,1.44c1.074,0.286,1.407,1.313,1.68,2.4
		c0.693,0.715,1.283,0.602,2.4,0.48c1.401,1.639,2.849,3.232,4.561,4.56c1.133,0.147,3.056-0.496,2.88,0.96
		c-2.98-0.14-5.364-0.875-6.24-3.12c-0.88-0.178-1.334,0.59-1.92,0c-0.215-0.775,0.782-0.337,0.96-0.72
		c-1.498-1.222-4.873-0.566-5.521-2.64c-0.281,0.039-0.202,0.438-0.239,0.72c-0.605-0.229-0.956-0.794-1.44,0
		c-0.436-0.879-0.807-0.573-1.92-0.48c-0.228-0.769-0.14-1.333-0.24-2.64c1.197,0.003,0.414,1.986,1.44,2.16
		c1.626-0.793-1.665-4.687,1.2-4.56c-0.429,1.423,0.217,2.897,0,4.8c0.893,0.014,0.691-1.068,0.72-1.92
		c0.766,0.915,1.184,2.177,2.399,2.64c-0.247-1.198-1.114-3.039-1.92-2.88c-0.429-1.225,0.056-2.811,0.96-3.84
		c-0.133-0.986-0.606-1.633-1.199-2.16C80.706,37.985,81.357,38.157,81.36,37.68z"/>
	<path style="fill-rule:evenodd;clip-rule:evenodd;" d="M99.84,37.68c0.699,0.336-0.426,0.827-0.24,1.44
		C98.917,38.8,99.785,38.053,99.84,37.68z"/>
	<path style="fill-rule:evenodd;clip-rule:evenodd;" d="M33.84,38.16c0.24,0,0.48,0,0.72,0c0,0.24,0,0.48,0,0.72
		c-0.24,0-0.48,0-0.72,0C33.84,38.64,33.84,38.4,33.84,38.16z"/>
	<path style="fill-rule:evenodd;clip-rule:evenodd;" d="M76.08,39.12c-0.716,0.287-0.815,0.066-1.439-0.24
		C74.65,38.158,76.344,38.183,76.08,39.12z"/>
	<path style="fill-rule:evenodd;clip-rule:evenodd;" d="M45.6,40.32c0.696,0.043,0.579,1.141-0.24,0.96
		C45.258,40.778,45.524,40.645,45.6,40.32z"/>
	<path style="fill-rule:evenodd;clip-rule:evenodd;" d="M33.84,40.8c0.7-0.353,0.7,1.073,0,0.72C33.84,41.28,33.84,41.04,33.84,40.8
		z"/>
	<path style="fill-rule:evenodd;clip-rule:evenodd;" d="M68.4,41.04c0.897-0.196,0.444,1.479,0.24,1.68
		C67.942,42.716,68.073,41.364,68.4,41.04z"/>
	<path style="fill-rule:evenodd;clip-rule:evenodd;" d="M42.72,42.96c-0.899,0.019-0.726-1.035-1.92-0.72
		c0.883,0.557,1.15,1.729,2.64,1.68c1.126,0.086,0.728-1.352,1.92-1.2c0.48,1.517-1.505,2.221-3.6,1.92
		c-0.215-1.545-1.901-1.619-2.4-2.88C40.585,41.051,42.64,41.253,42.72,42.96z"/>
	<path style="fill-rule:evenodd;clip-rule:evenodd;" d="M69.84,41.28c0.239,0,0.479,0,0.72,0c0.067,0.628-0.088,1.033-0.72,0.96
		C69.84,41.92,69.84,41.6,69.84,41.28z"/>
	<path style="fill-rule:evenodd;clip-rule:evenodd;" d="M92.16,41.52c-0.599,0.846-2.94,1.213-4.08,0.72
		c-0.122-0.858,1.011-0.401,1.44-0.48C90.482,41.582,91.639,41.034,92.16,41.52z"/>
	<path style="fill-rule:evenodd;clip-rule:evenodd;" d="M64.08,41.76c-0.87,1.21-2.218,1.942-2.16,4.08
		c-1.538,0.263-2.785,1.959-3.84,1.92c0.392-1.448,1.813-1.866,3.12-2.4c-0.295-0.505-1.445-0.155-1.68-0.72
		c0.511-1.287,2.453-1.176,2.16-2.64C62.596,42.129,63.201,41.366,64.08,41.76z"/>
	<path style="fill-rule:evenodd;clip-rule:evenodd;" d="M87.36,42c0.16,0,0.32,0,0.48,0c0,0.16,0,0.32,0,0.48c-0.16,0-0.32,0-0.48,0
		C87.36,42.32,87.36,42.16,87.36,42z"/>
	<path style="fill-rule:evenodd;clip-rule:evenodd;" d="M72.72,44.88c-0.577-0.865,2.157-0.995,2.88-0.48
		c-0.438,0.916-2.275,0.337-1.44,1.92c-0.835-0.444-1.769-0.791-3.12-0.72c-0.358-0.387,0.207-1.204,0-2.16
		c0.071-0.631-0.931-0.189-0.72-0.96C71.919,41.846,72.816,43.72,72.72,44.88z"/>
	<path style="fill-rule:evenodd;clip-rule:evenodd;" d="M70.32,44.88c-1.129,0.791-2.072,1.768-3.36,2.4
		c-0.663-0.137-1.346-0.254-1.2-1.2c0.933-0.334,1.827-0.337,2.4-0.48C68.314,44.261,69.97,42.74,70.32,44.88z"/>
	<path style="fill-rule:evenodd;clip-rule:evenodd;" d="M63.36,43.92c1.362-0.002,2.373,0.348,2.64,1.44
		c-0.557,0.34-1.877-0.721-2.88,0C63.088,44.769,63.083,44.204,63.36,43.92z"/>
	<path style="fill-rule:evenodd;clip-rule:evenodd;" d="M51.6,45.36c0.047,0.688,0.03,1.31-0.72,1.2
		C50.382,46.066,50.881,45.343,51.6,45.36z"/>
	<path style="fill-rule:evenodd;clip-rule:evenodd;" d="M49.92,45.6c0.102,0.501-0.165,0.635-0.24,0.96
		c-0.224-0.256-0.886-0.075-0.72-0.72C49.173,45.654,49.502,45.582,49.92,45.6z"/>
	<path style="fill-rule:evenodd;clip-rule:evenodd;" d="M58.8,45.6c-0.132,1.063-1.155,0.521-0.96,1.44
		c-1.333,0.213-1.779-0.461-2.88-0.48c-0.044-0.204,0.094-0.227,0.24-0.24c0-0.16,0-0.32,0-0.48
		C56.729,46.778,57.227,45.793,58.8,45.6z"/>
	<path style="fill-rule:evenodd;clip-rule:evenodd;" d="M71.52,46.8c0.791,0.009,1.698-0.098,1.68,0.72
		C72.713,47.936,71.151,47.973,71.52,46.8z"/>
	<path style="fill-rule:evenodd;clip-rule:evenodd;" d="M118.8,48.24c-0.17,0.532-1.127,0.797-1.44,0.48
		C117.553,48.211,118.348,47.784,118.8,48.24z"/>
	<path style="fill-rule:evenodd;clip-rule:evenodd;" d="M36.72,48.96c-0.359,0.381-1.369,0.351-1.2-0.48
		C35.878,48.099,36.888,48.129,36.72,48.96z"/>
	<path style="fill-rule:evenodd;clip-rule:evenodd;" d="M58.8,48.24c-0.745,1.53-2.89,3.829-5.04,2.4
		c-1.326,0.594-2.375,1.465-3.6,2.16c0.296-1.783,2.007-2.152,3.12-3.12C55.903,51.308,56.717,48.565,58.8,48.24z"/>
	<path style="fill-rule:evenodd;clip-rule:evenodd;" d="M41.76,48.48c-0.284,1.906-2.605,2.955-4.56,2.4
		c-0.255-0.895,0.9-0.38,0.72-1.2C40.046,50.415,40.366,49.047,41.76,48.48z"/>
	<path style="fill-rule:evenodd;clip-rule:evenodd;" d="M74.88,48.48c1.271-0.004,1.396,0.769,2.64,0.24
		c0.023,1.144-0.884,1.355-0.96,2.4c-0.08-1.04-0.982-1.257-1.92-1.44C74.563,49.124,74.678,48.759,74.88,48.48z"/>
	<path style="fill-rule:evenodd;clip-rule:evenodd;" d="M116.88,49.44c0.111,1.072-1.875,0.045-2.16,0.72
		c-0.69,1.682,0.184,3.947-0.96,5.52c-1.636,2.248-5.401,1.72-8.16,2.88c-0.345,0.671-0.665,1.396-1.68,1.92
		c2.349,2.242,5.576-1.763,7.92-0.24c1.227-0.51,3.521-1.758,5.52-1.92c0.897-0.073,2.694-0.498,3.12,0.72
		c-2.654-0.096-5.996,0.554-8.4,1.92c-2.405-0.866-4.095,0.792-5.04,2.16c-1.259,0.021-2.144,0.416-3.119,0.72
		c0.313-1.033-0.497-0.943-0.96-1.2c-0.96,0.001-1.043,0.877-1.681,1.2c-2.537,0.191-6.488,0.223-7.2-2.16
		c1.956,1.285,5.824,2.253,7.92,0.72c-0.41-0.55-1.831-0.089-2.64-0.24c-1.479-0.68-2.013-2.308-4.08-2.4
		c1.074-1.083,3.283,0.449,3.601,1.68c1.049-0.166,3.423,0.24,4.319-0.72c-0.181-1.052-1.736,0.342-2.399-0.48
		c0.081-1.599,3.422,0.062,3.6-1.44c-0.379-0.518-2.087,0.932-2.88,0c1.917-1.904,6.037-1.192,8.88-2.16
		c1.331-0.453,2.486-1.356,3.12-2.64C112.201,51.63,114.372,47.842,116.88,49.44z M102.72,61.92c1.223,0.28,3.823,1.131,4.56-0.24
		C105.348,62.568,103.679,60.447,102.72,61.92z"/>
	<path style="fill-rule:evenodd;clip-rule:evenodd;" d="M47.76,49.2c0.299,1.019-0.798,0.642-0.96,1.2
		c0.495,0.475,1.974-1.095,2.64-0.48c-0.455,1.909-3.073,1.352-4.56,1.44c0.045-0.675,0.417-1.022,1.2-0.96
		C46.146,50.038,46.653,49.187,47.76,49.2z"/>
	<path style="fill-rule:evenodd;clip-rule:evenodd;" d="M66.96,49.2c0.033,0.847,0.687,1.073,0.72,1.92
		c-0.624,0.096-0.724,0.716-1.44,0.72c-0.263-0.697-0.216-1.703-0.479-2.4C66.039,49.239,66.403,49.124,66.96,49.2z"/>
	<path style="fill-rule:evenodd;clip-rule:evenodd;" d="M67.92,49.44c1.147,0.212,1.328,1.392,1.44,2.64
		C68.332,51.748,68.047,50.673,67.92,49.44z"/>
	<path style="fill-rule:evenodd;clip-rule:evenodd;" d="M77.76,49.92c0.727,0.074,0.857,0.743,1.92,0.48
		c-0.006,0.565,0.413,0.707,0.24,1.44c1.205,0.154,1.194,1.526,2.399,1.68c0.165,0.646-0.496,0.464-0.72,0.72
		c-0.786-0.894-2.209-1.151-2.4-2.64C78.829,50.932,77.345,51.375,77.76,49.92z"/>
	<path style="fill-rule:evenodd;clip-rule:evenodd;" d="M35.76,50.4c-0.486,0.795-1.824,0.736-2.88,0.96
		C32.965,50.318,34.969,49.938,35.76,50.4z"/>
	<path style="fill-rule:evenodd;clip-rule:evenodd;" d="M70.8,51.12c0.006-0.233,0.293-0.187,0.479-0.24
		c1.04,0.08,0.911,1.329,1.44,1.92c0.319,0,0.64,0,0.96,0c0.193,1.967,2.337,1.983,3.12,3.36c-1.996,0.529-2.543-2.181-4.561-2.4
		C71.798,52.842,71.326,51.954,70.8,51.12z"/>
	<path style="fill-rule:evenodd;clip-rule:evenodd;" d="M42.48,51.12c0.7-0.353,0.7,1.073,0,0.72
		C42.48,51.6,42.48,51.36,42.48,51.12z"/>
	<path style="fill-rule:evenodd;clip-rule:evenodd;" d="M61.68,51.12c0.24,0,0.48,0,0.72,0c0.215,1.095-0.399,1.36-0.48,2.16
		c1.028-0.092,0.681-1.559,1.92-1.44c0.181,1.272-1.494,2.628-2.88,3.12c0.141-0.5,0.504-0.775,0.72-1.2
		c-2.379,0.741-3.243,2.998-5.52,3.84C57.035,54.475,61.175,54.615,61.68,51.12z"/>
	<path style="fill-rule:evenodd;clip-rule:evenodd;" d="M85.44,51.84c0.325,1.576-2.384,1.117-1.92-0.24
		C84.094,51.054,84.404,52.126,85.44,51.84z"/>
	<path style="fill-rule:evenodd;clip-rule:evenodd;" d="M53.52,51.6c0.722-0.242,0.425,0.535,0.48,0.96
		C53.578,52.502,53.453,52.147,53.52,51.6z"/>
	<path style="fill-rule:evenodd;clip-rule:evenodd;" d="M46.8,52.08c-0.361,0.688-2.335,1.014-3.12,0.48
		C44.125,51.487,45.893,52.045,46.8,52.08z"/>
	<path style="fill-rule:evenodd;clip-rule:evenodd;" d="M60.96,51.84c-0.187,0.693-0.521,1.239-0.96,1.68
		C59.429,53.01,59.954,51.567,60.96,51.84z"/>
	<path style="fill-rule:evenodd;clip-rule:evenodd;" d="M66,52.08c-0.349,0.852-0.484,1.916-1.68,1.92
		C64.668,53.148,64.804,52.084,66,52.08z"/>
	<path style="fill-rule:evenodd;clip-rule:evenodd;" d="M34.8,53.52c-0.5-0.528,0.286-1.124,1.2-0.96
		C36.035,53.314,35.384,53.384,34.8,53.52z"/>
	<path style="fill-rule:evenodd;clip-rule:evenodd;" d="M70.08,52.56c0.32,0,0.641,0,0.96,0c0.475,1.339,0.722,1.504,0.96,2.88
		c-1.035-0.004-0.884-1.195-1.92-1.2C70.484,53.294,70.484,53.506,70.08,52.56z"/>
	<path style="fill-rule:evenodd;clip-rule:evenodd;" d="M112.32,52.8c0.24,0,0.48,0,0.72,0c0,0.32,0,0.64,0,0.96
		C112.408,53.833,112.252,53.428,112.32,52.8z"/>
	<path style="fill-rule:evenodd;clip-rule:evenodd;" d="M85.2,53.04c0.24,0,0.48,0,0.721,0c0.651,1.828,2.574,2.385,4.079,3.36
		c1.438-0.285,2.438-1.518,3.841-0.48c-0.387,0.591-2.512,1.23-3.36,1.2C88.157,57.038,85.818,54.932,85.2,53.04z"/>
	<path style="fill-rule:evenodd;clip-rule:evenodd;" d="M34.8,53.52c-0.262,1.098-0.008,2.711-1.68,2.4
		C33.752,55.192,33.248,53.328,34.8,53.52z"/>
	<path style="fill-rule:evenodd;clip-rule:evenodd;" d="M97.68,53.76c3.115,1.07,8.069,2.646,11.76,1.44
		c1.177-0.385,1.611-1.472,2.88-1.44c-0.83,2.242-3.658,2.624-6,2.64c-3.155,0.022-6.096-1.052-8.399-1.68
		C97.734,54.506,97.662,54.178,97.68,53.76z"/>
	<path style="fill-rule:evenodd;clip-rule:evenodd;" d="M32.64,54.24c-0.312,1.127-1.515,1.365-2.64,1.68
		C29.855,54.335,31.656,54.696,32.64,54.24z"/>
	<path style="fill-rule:evenodd;clip-rule:evenodd;" d="M40.8,56.4c-0.983-0.212-0.418-1.258-1.68-0.72
		c-0.077-0.557,0.039-0.921,0.24-1.2c1.035-0.155,0.754,1.006,1.68,0.96C41.07,55.871,40.746,55.946,40.8,56.4z"/>
	<path style="fill-rule:evenodd;clip-rule:evenodd;" d="M56.4,54.72c-0.808,1.432-2.684,1.795-4.08,2.64
		c-0.239,1.97-1.007,2.26-2.64,3.36c-0.88,0.592-1.523,1.302-2.16,1.44c-1.862,0.402-4.311-0.495-6.48,0.24
		c0.667-1.303,2.622-0.941,4.08-1.2c2.359-0.419,4.676-0.896,6-2.4c-0.032-0.591-0.037-1.156,0.24-1.44
		c1.252-1.228,3.229-1.731,4.56-2.88C56.199,54.441,56.347,54.533,56.4,54.72z"/>
	<path style="fill-rule:evenodd;clip-rule:evenodd;" d="M85.44,55.68c0.111,0.751-0.209,1.071-0.96,0.96
		C83.733,55.979,84.779,54.933,85.44,55.68z"/>
	<path style="fill-rule:evenodd;clip-rule:evenodd;" d="M35.28,55.68c0.349,0.131,1.241-0.281,1.2,0.24
		C36.659,56.834,34.926,56.439,35.28,55.68z"/>
	<path style="fill-rule:evenodd;clip-rule:evenodd;" d="M78,55.68c3.102,0.259,4.274,2.446,6.721,3.36
		c-0.987,1.162-2.58-1.053-4.08-0.96c-0.579-0.781-1.111-1.609-2.641-1.44C78,56.32,78,56,78,55.68z"/>
	<path style="fill-rule:evenodd;clip-rule:evenodd;" d="M28.08,55.92c-0.189,1.651-2.062,1.618-2.16,3.36
		c-1.692,1.549-4.844,0.87-5.76-0.96c0.671-0.551,1.354,0.424,1.92,0.72c1.076-0.364,2.31-0.57,3.36-0.96
		C26.519,57.559,26.236,55.676,28.08,55.92z M23.04,59.76c0.24,0,0.48,0,0.72,0c0.031-0.431-0.239-0.562-0.72-0.48
		C23.04,59.44,23.04,59.6,23.04,59.76z"/>
	<path style="fill-rule:evenodd;clip-rule:evenodd;" d="M34.8,56.4c-0.292,1.188-1.489,0.568-2.16,0.72
		c-2.267,0.512-3.777,1.663-5.28,2.88c-1.331-1.874,2.676-1.964,3.36-3.36C32.01,56.645,33.864,55.952,34.8,56.4z"/>
	<path style="fill-rule:evenodd;clip-rule:evenodd;" d="M85.68,56.4c1.077,0.202,1.349,1.211,1.92,1.92
		c1.213-0.077,1.358,0.301,2.16,1.2c0.55,0.617,2.016,2.035,2.16,2.88c0.147,0.866-0.48,1.781-0.24,2.64
		c0.6,2.142,2.765,1.607,4.08,3.12c-1.945-0.156-3.897-0.247-5.04-1.681c-0.59-0.739-0.521-2.003-0.96-2.88
		c-0.256-0.511-1.079-0.426-0.721-1.199c1.701-0.102,1.261,1.938,1.921,2.88c0.877-2.342-0.704-6.045-3.12-5.76
		C87.478,58.122,85.779,58.062,85.68,56.4z M92.16,66.479c-0.342-0.057-0.404-0.395-0.72-0.479
		C91.23,66.494,92.062,67.078,92.16,66.479z"/>
	<path style="fill-rule:evenodd;clip-rule:evenodd;" d="M97.2,56.4c1.005,0.276,1.355,1.205,2.4,1.44
		C98.767,59.127,96.391,57.553,97.2,56.4z"/>
	<path style="fill-rule:evenodd;clip-rule:evenodd;" d="M10.56,59.28c-0.221-0.654-0.75,0.335-1.44,0
		c0.889-1.227,2.938-1.476,4.08-1.2c0.497,0.12,1.322,0.547,1.68,0.96c0.182,0.21,0.183,1.005,0.48,1.2
		c1.157,0.758,2.243,0.764,3.36,0.24c-0.183-1.398-1.707-2.256-3.12-1.68c0.343-1.144-1.003-0.596-0.72-1.68
		c1.27-0.038,1.984-0.409,3.12,0c-0.341,1.695,1.986,2.167,2.4,3.84c1.279-0.159,2.138,0.102,2.64,0.72
		c0.931-0.669,2.269-0.931,3.12-1.68c0.106,0.214,0.21,0.429,0.48,0.48c-0.476,1.444-2.508,1.333-3.6,2.16
		c-0.948,1.293-2.605,1.875-3.6,3.12c0.033,0.847,0.687,1.073,0.72,1.92c-0.155,0.885-0.821,1.259-1.68,1.44
		c-0.016,1.072,1.232-0.489,1.2,0.72c-1.542,0.572-2.933-0.626-5.04-0.24c-0.757,0.203-0.683,1.237-1.44,1.44
		c-0.88-0.24-2.363,0.123-2.4-0.96c0.882-0.496,1.328,0.064,2.16,0.24c0.896-3.106,4.675-0.607,6.48-2.4
		c-0.188-0.932-0.672-1.568-1.2-2.16c1.413-1.066,2.375-2.584,4.08-3.359c-1.437-1.444-5.248-0.512-7.2-1.44
		c-0.442-0.998-1.15-1.729-2.16-2.16c-2.337,0.205-3.346,2.81-5.76,2.16c0.041,1.399,1.386,1.494,1.68,2.64
		c-0.156,2.429-6.938,2.179-5.04-0.479c1.142-0.021,0.794,1.445,1.92,1.439c1.062,0.021,1.732-0.348,2.16-0.96
		c-0.732-1.476-3.675-2.035-2.16-4.32c1.984-1.354,5.196-3.414,7.68-2.16c-0.545,0.766-1.965,0.376-3.12,0.72
		c-1.196,0.356-2.314,1.106-2.88,1.92C8.856,59.656,9.178,60.019,10.56,59.28z"/>
	<path style="fill-rule:evenodd;clip-rule:evenodd;" d="M13.68,58.08c0-0.24,0-0.48,0-0.72c0.24,0,0.48,0,0.72,0
		c0,0.24,0,0.48,0,0.72C14.16,58.08,13.92,58.08,13.68,58.08z"/>
	<path style="fill-rule:evenodd;clip-rule:evenodd;" d="M35.28,57.84c0.14,0.86-0.71,0.73-1.44,0.72
		c-1.741,1.219-2.486,3.434-3.84,5.04c-0.817,0.042-3.084,0.886-3.12-0.479c0.921-0.103,1.55-0.51,2.4-0.24
		C30.979,61.025,32.149,57.476,35.28,57.84z"/>
	<path style="fill-rule:evenodd;clip-rule:evenodd;" d="M39.36,58.8c-0.438,0.65-3.091-0.134-3.6-0.96
		C37.173,57.202,38.656,57.991,39.36,58.8z"/>
	<path style="fill-rule:evenodd;clip-rule:evenodd;" d="M92.16,57.6c1.109-0.069,1.58,0.5,1.92,1.2
		C93.471,59.174,92.18,58.572,92.16,57.6z"/>
	<path style="fill-rule:evenodd;clip-rule:evenodd;" d="M65.28,57.84c0.388-0.067,0.414,0.227,0.72,0.24
		c-0.038,2.307-0.432,4.045-0.96,5.28c-1.113-0.759,0.137-2.516,0.24-3.84C65.335,58.812,64.754,58.339,65.28,57.84z"/>
	<path style="fill-rule:evenodd;clip-rule:evenodd;" d="M57.36,58.08c-0.104,0.295-0.307,0.493-0.72,0.48
		C56.528,58.048,56.983,58.103,57.36,58.08z"/>
	<path style="fill-rule:evenodd;clip-rule:evenodd;" d="M61.68,59.52c-0.359,0.381-1.368,0.351-1.2-0.48
		C60.838,58.659,61.848,58.689,61.68,59.52z"/>
	<path style="fill-rule:evenodd;clip-rule:evenodd;" d="M68.4,58.8c0.24,0,0.48,0,0.72,0c-0.384,1.478,0.021,2.611,0.24,4.08
		C67.738,62.931,68.005,59.984,68.4,58.8z"/>
	<path style="fill-rule:evenodd;clip-rule:evenodd;" d="M31.2,59.04c-0.055,0.825-0.714,1.046-1.44,1.2
		C29.64,59.24,30.368,59.088,31.2,59.04z"/>
	<path style="fill-rule:evenodd;clip-rule:evenodd;" d="M16.08,59.52c0.586-0.724,1.49,0.254,1.92,0.48
		C17.668,60.471,16.443,59.813,16.08,59.52z"/>
	<path style="fill-rule:evenodd;clip-rule:evenodd;" d="M84.96,61.44c-1.357-0.323-2.411-0.949-3.601-1.44
		C81.775,59.029,85.003,60.368,84.96,61.44z"/>
	<path style="fill-rule:evenodd;clip-rule:evenodd;" d="M36.72,61.44c-0.415,0.385-1.484,0.116-1.68,0.72
		c0.521,0.735,1.351-0.23,2.16,0c0.467,0.412,0.727,1.033,1.44,1.2c0.566-0.93-0.853-1.619-0.72-2.88
		c1.633-0.033,0.755,2.445,2.16,2.64c-0.177,1.021-3.279,1.151-3.12-0.24c-2.167-0.326-3.043,0.637-4.08,1.44
		c-0.505-1.445,1.376-2.42,2.4-3.12c-1.346-0.621-1.854,1.66-3.36,1.68C31.938,60.765,36.099,58.633,36.72,61.44z"/>
	<path style="fill-rule:evenodd;clip-rule:evenodd;" d="M51.6,60.72c-0.045,0.915-1.339,0.581-1.44,1.44
		c0.416,0.778,0.629-0.624,1.44-0.24c-0.206,1.314-1.964,1.076-2.88,1.68c0.082-0.481-0.049-0.751-0.48-0.72
		C49.333,62.29,50.683,60.688,51.6,60.72z"/>
	<path style="fill-rule:evenodd;clip-rule:evenodd;" d="M66.48,60.48c0.388-0.067,0.413,0.227,0.72,0.24
		c-0.292,0.428-0.044,1.396-0.48,1.68C65.7,62.446,66.447,60.896,66.48,60.48z"/>
	<path style="fill-rule:evenodd;clip-rule:evenodd;" d="M92.88,60.48c0.751-0.111,1.071,0.208,0.96,0.96
		C93.088,61.551,92.769,61.231,92.88,60.48z"/>
	<path style="fill-rule:evenodd;clip-rule:evenodd;" d="M69.84,61.92c0.239,0,0.479,0,0.72,0c0.266,1.014,0.864,1.695,1.2,2.64
		c0.513,0.527,1.801,0.28,1.68,1.44C71.279,65.602,70.483,63.837,69.84,61.92z"/>
	<path style="fill-rule:evenodd;clip-rule:evenodd;" d="M123.84,62.4c0.278-0.039,0.427,0.053,0.479,0.239
		c0.331,0.694-0.524,1.946-0.96,2.641c-4.099-0.792-5.644,0.871-6.96,3.359c-0.943-0.441-0.027-1.752,0.24-2.16
		c0.853-1.299,2.912-1.994,4.32-2.399c0.988,0.644,1.404-0.001,2.159,0.24C123.469,63.789,123.282,62.722,123.84,62.4z"/>
	<path style="fill-rule:evenodd;clip-rule:evenodd;" d="M41.04,62.64c0.388-0.067,0.413,0.228,0.72,0.24
		c-0.03,0.61-0.35,0.931-0.96,0.96C40.354,63.416,40.904,63.14,41.04,62.64z"/>
	<path style="fill-rule:evenodd;clip-rule:evenodd;" d="M26.64,63.84c-1.423,0.179-3.667,0.749-4.32,2.4
		c0.042,1.272,0.156,1.225,0,2.399c-0.608,0.432-1.088,0.992-2.16,0.96c0.528-0.752,0.546-2.014,0.48-3.359
		c1.247-0.486,2.907-2.986,4.56-3.12C25.486,63.097,26.674,62.803,26.64,63.84z M21.84,68.16c-0.145-0.495,0.387-1.667-0.48-1.44
		C21.364,67.356,21.227,68.133,21.84,68.16z"/>
	<path style="fill-rule:evenodd;clip-rule:evenodd;" d="M111.36,63.12c-0.955,4.027-8.313,4.611-11.76,2.64
		c-1.922,0.434-4.764,0.272-5.28-1.439c1.492,0.331,3.463,1.702,5.04,0.479c1.36,0.809,3.674,1.492,5.04,0.96
		c-0.231-1.262-2.496,0.138-2.88-0.479c0.797-1.469,3.371-0.864,4.08,0.239c1.396-0.019,2.354,0.162,3.12-0.479
		c0.225-0.188,0.201-0.759,0.479-0.96c0.388-0.28,0.928,0.013,1.2-0.24C110.653,63.605,110.382,62.825,111.36,63.12z"/>
	<path style="fill-rule:evenodd;clip-rule:evenodd;" d="M19.44,63.36c0.16,0,0.32,0,0.48,0c0.112,0.512-0.343,0.457-0.72,0.479
		C19.246,63.646,19.441,63.601,19.44,63.36z"/>
	<path style="fill-rule:evenodd;clip-rule:evenodd;" d="M51.6,63.6c-0.126,0.914-1.414,0.667-2.4,0.721
		C49.351,63.58,51.142,63.236,51.6,63.6z"/>
	<path style="fill-rule:evenodd;clip-rule:evenodd;" d="M102.24,63.36c0.388-0.068,0.413,0.227,0.721,0.239
		C103.055,64.065,101.867,63.95,102.24,63.36z"/>
	<path style="fill-rule:evenodd;clip-rule:evenodd;" d="M43.92,64.32c-0.158,0.882-0.885,1.195-1.44,1.68
		c-0.412,0.948-0.105,2.614-1.68,2.4C41.603,66.803,41.863,64.663,43.92,64.32z"/>
	<path style="fill-rule:evenodd;clip-rule:evenodd;" d="M45.6,64.32c0.008,1.287-1.363,1.196-1.68,2.159
		c0.216,1.496-0.441,2.119-1.2,2.641c1.747,0.862,1.58-2.256,2.88-2.641c0.15,2.575-2.554,4.501-4.8,3.12
		c0.499-0.86,1.75-0.969,2.4-1.68C43.116,65.836,44.053,64.772,45.6,64.32z"/>
	<path style="fill-rule:evenodd;clip-rule:evenodd;" d="M92.4,64.32c1.528,1.032,2.703,2.417,5.28,2.399
		C95.674,68.003,92.803,66.218,92.4,64.32z"/>
	<path style="fill-rule:evenodd;clip-rule:evenodd;" d="M29.52,65.04c0,0.32,0,0.64,0,0.96c-0.899,0.02-1.942,0.182-1.68-0.96
		C28.584,65.121,28.987,64.484,29.52,65.04z"/>
	<path style="fill-rule:evenodd;clip-rule:evenodd;" d="M27.36,65.28c0.031,0.43-0.293,0.506-0.24,0.96
		c-1.202-0.206-1.679-0.206-2.88,0C24.588,64.833,26.439,65.002,27.36,65.28z"/>
	<path style="fill-rule:evenodd;clip-rule:evenodd;" d="M32.88,65.04c-0.223,1.342-1.8,1.625-3.12,1.2
		C30.451,65.491,31.995,65.595,32.88,65.04z"/>
	<path style="fill-rule:evenodd;clip-rule:evenodd;" d="M33.36,65.28c0.99-0.321,0.211,0.804,0.24,0.96
		c0.23,1.244,0.335,1.068,0,2.64c-1.089,1.865-5.228,2.118-6.72,0.96c0.139-0.791,0.906-0.344,1.44-0.24
		c0.105-1.163-1.268-1.794-0.48-2.88C29.211,66.937,32.831,67.624,33.36,65.28z M28.56,68.4c0.609,1.571,2.507,1.601,3.84,0.72
		c0.253-1.128-0.809,0.395-0.96-0.48c0.146-0.812,1.535-0.385,1.44-1.439C31.744,68.43,29.403,66.974,28.56,68.4z"/>
	<path style="fill-rule:evenodd;clip-rule:evenodd;" d="M116.4,66c-1.716,0.339-4.577,1.634-6.24,0.479
		c0.084-1.226,0.649-0.201,1.2-0.239C113.011,66.126,115.856,64.701,116.4,66z"/>
	<path style="fill-rule:evenodd;clip-rule:evenodd;" d="M54.96,65.52c-0.037,1.323-1.244,1.477-1.68,2.4
		c-0.602,3.349-2.102,6.489-5.52,6.72c-1.296,0.088-2.58-0.855-4.32-0.479c-0.722-1.438-3.582-0.738-4.08-2.4
		c2.325,0.039,4.606,2.285,6.96,1.92c1.383-0.214,1.642-1.27,2.88-1.92c0.053,1.253-0.836,1.564-1.44,2.16
		C52.766,73.726,51.219,66.979,54.96,65.52z"/>
	<path style="fill-rule:evenodd;clip-rule:evenodd;" d="M120.24,65.52c0.048,0.688,0.03,1.311-0.72,1.2
		C119.161,66.364,119.498,65.479,120.24,65.52z"/>
	<path style="fill-rule:evenodd;clip-rule:evenodd;" d="M23.28,66.479c0.502-0.102,0.636,0.165,0.96,0.24
		c0.062,0.783-0.285,1.155-0.96,1.2C23.28,67.44,23.28,66.96,23.28,66.479z"/>
	<path style="fill-rule:evenodd;clip-rule:evenodd;" d="M38.64,66.96c0.24,0,0.48,0,0.72,0c-0.042,0.758-0.168,1.432-0.96,1.44
		C37.871,67.894,38.708,67.69,38.64,66.96z"/>
	<path style="fill-rule:evenodd;clip-rule:evenodd;" d="M94.56,77.52c-1.483-0.108-3.297-2.016-3.6-3.84
		c-0.223-1.339,0.539-2.781,0.239-4.08c-0.241-1.046-1.193-1.354-1.439-2.159c0.213-0.187,0.542-0.259,0.96-0.24
		c0.269,0.879,1.286,1.552,1.439,2.64c0.151,1.071-0.556,2.113-0.479,3.12C91.855,75.275,93.24,75.765,94.56,77.52z"/>
	<path style="fill-rule:evenodd;clip-rule:evenodd;" d="M101.04,67.68c-0.898,1.393-3.95,2.191-5.76,1.2
		c0.938-1.142,4.379,0.219,4.8-1.439C100.582,67.339,100.715,67.604,101.04,67.68z"/>
	<path style="fill-rule:evenodd;clip-rule:evenodd;" d="M34.8,67.68c0.068,0.628-0.087,1.032-0.72,0.96
		C34.181,68.181,34.167,67.607,34.8,67.68z"/>
	<path style="fill-rule:evenodd;clip-rule:evenodd;" d="M117.6,67.68c0.388,0.701,0.591,0.264,1.439,0.24
		c-1,1.319-2.547,2.093-2.88,4.08c-1.278,1.078-3.293,0.807-5.279,1.2c-1.271,0.251-2.349,0.938-3.601,0.96
		c-1.382,0.024-2.943-0.396-4.08-0.96c1.307-1.486,4.29,1.041,6,0c-1.543-0.856-4.656-0.144-5.52-1.681
		c2.745,0.407,7.435,1.628,10.56,0.721c0.52-0.151,0.953-0.553,1.44-0.721c0.17-0.89-0.41-1.029-0.24-1.92
		C116.375,69.174,117.124,68.563,117.6,67.68z"/>
	<path style="fill-rule:evenodd;clip-rule:evenodd;" d="M45.84,67.92c0.95-0.31,0.49,0.79,1.44,0.48
		c-0.142,1.137-0.668,1.891-0.96,2.88c2.095,0.175,0.834-3.006,2.64-3.12c0.046,1.246-0.677,1.723-1.2,2.399
		c0.893,0.394,1.137-1.67,2.88-1.199c-0.206,0.754-0.907,1.013-0.96,1.92c-0.295-0.105-0.493-0.308-0.48-0.721
		c-1.141,1.305-3.497,2.04-6,1.681c-1.071-0.154-2.205-0.896-2.88-1.2c0.221-1.327,1.412,0.123,1.92,0.24
		c1.1,0.253,2.176,0.081,3.12,0.479C46.238,70.913,46.604,69.09,45.84,67.92z"/>
	<path style="fill-rule:evenodd;clip-rule:evenodd;" d="M114.24,68.16c-1.058,2.286-5.744,2.316-8.16,1.2
		c-0.337,1.058,0.79,0.65,1.44,0.72c0.246,0.807-0.746,0.373-1.2,0.479c0.488,0.553,1.437,0.645,2.4,0.721
		c0.413-1.348,3.113-0.407,4.319-0.96c0.068,0.388-0.227,0.413-0.239,0.72c0.053,0.343,1.194-0.223,1.92,0
		c-0.062-0.498-1.055-0.065-1.2-0.48c0.221-0.419,0.75-0.529,1.44-0.479c0.155,0.876-0.162,1.278-0.48,1.68
		c-3.537-0.523-7.447,0.76-9.6-1.2c0.208-0.351,0.359-0.76,0.96-0.72c-0.438-0.763-2.22-0.18-1.92-1.68
		c3.083,0.308,7.574,2.548,9.6-0.24C113.908,67.853,113.933,68.146,114.24,68.16z"/>
	<path style="fill-rule:evenodd;clip-rule:evenodd;" d="M46.08,69.12c-0.498,0.622-0.211,2.029-1.44,1.92
		C44.783,70.063,45.022,69.182,46.08,69.12z"/>
	<path style="fill-rule:evenodd;clip-rule:evenodd;" d="M67.92,69.36c1.244-0.037,0.75,2.922,0.48,3.6
		C67.644,72.443,67.567,70.213,67.92,69.36z"/>
	<path style="fill-rule:evenodd;clip-rule:evenodd;" d="M94.32,69.6c0.843-0.042,0.789,0.812,1.44,0.96
		c1.522,0.103,3.767-0.149,4.56,0C99.375,72.174,93.898,71.886,94.32,69.6z"/>
	<path style="fill-rule:evenodd;clip-rule:evenodd;" d="M82.32,69.84c1.375,0.306,0.675,2.686,1.92,3.12
		c-0.854,0.985-0.673,3.007-1.439,4.08c-1.144-0.674,0.141-2.833,0.479-3.6C83.101,72.198,81.867,70.937,82.32,69.84z"/>
	<path style="fill-rule:evenodd;clip-rule:evenodd;" d="M108.72,70.56C108.193,71.293,107.183,70.283,108.72,70.56L108.72,70.56z"/>
	<path style="fill-rule:evenodd;clip-rule:evenodd;" d="M57.12,72c0.16,0,0.32,0,0.48,0c1.368,0.072,0.859,2.021,0.96,3.36
		c-0.926,0.046-0.256-1.505-0.72-1.92C57.744,72.816,57.124,72.716,57.12,72z"/>
	<path style="fill-rule:evenodd;clip-rule:evenodd;" d="M68.88,72.72c0.24,0,0.48,0,0.72,0c0.904,5.054-4.584,6.252-2.64,11.04
		c-0.655,0.021-0.483-0.399-0.96,0c0.014,2.066,1.811,2.35,2.16,4.08c-2.94-1.019-2.751-4.461-2.16-7.92
		C67.269,77.829,69.301,76.501,68.88,72.72z"/>
	<path style="fill-rule:evenodd;clip-rule:evenodd;" d="M85.68,72.72c1.226,0.295,1.182,1.858,1.68,2.88
		c0.244-0.155,0.248-0.552,0.72-0.479c-0.071,3.309,1.424,6.812,4.32,7.92c-0.856-1.624-2.504-2.456-2.88-4.561
		c1.274-0.234,0.886,1.194,1.44,1.681c2.193,3.9,7.99,6.479,12.96,3.6c-0.182,1.265-2.018,1.59-3.12,1.2
		c2.21,2.693,3.824-2.061,6-1.92c-0.107,1.413-2.121,0.919-1.92,2.64c-2.775,1.591-4.796,0.009-8.16,0.48
		c0.624,1.009,2.129,1.314,3.359,1.439c1.469,0.15,4.013,0.108,5.28-0.479c1.414-0.656,1.707-2.297,3.12-2.641
		c-0.065,3.652-8.62,5.537-12,2.641c-1.013-0.868-1.145-2.192-1.92-2.88c-4.366-0.514-6.481-3.279-7.2-7.44
		c-0.166,1.834-0.874,3.126-1.2,4.8c-0.439-0.385-0.812,0.222-1.199-0.479c-0.104-1.161,0.507-0.236,0.96-0.96
		c0.415-1.504,0.938-2.901,0.72-5.04C86.487,74.214,85.072,73.626,85.68,72.72z"/>
	<path style="fill-rule:evenodd;clip-rule:evenodd;" d="M80.64,72.96c0.279-0.039,0.427,0.053,0.479,0.24
		c0.117,1.583,0.187,2.397,0.24,3.6c-1.31,1.49-1.629,3.971-1.439,6.96c-1.194-0.698-0.901-2.802-0.721-3.84
		c0.261-1.492,1.145-2.874,1.681-3.84C80.233,75.667,80.222,73.675,80.64,72.96z"/>
	<path style="fill-rule:evenodd;clip-rule:evenodd;" d="M21.84,74.16c-0.366,0.369-1.646,0.428-1.44-0.48
		C20.766,73.311,22.045,73.253,21.84,74.16z"/>
	<path style="fill-rule:evenodd;clip-rule:evenodd;" d="M67.68,73.44c0.24,0,0.48,0,0.72,0c-0.511,4.376-5.356,7.083-2.88,12.72
		c-1.28-0.16-1.132-1.748-1.44-2.88c-0.319-0.882-1.102-1.299-1.44-2.16c0.137-2.983,0.114-6.126,2.4-6.96
		c-0.72,1.359-1.228,2.932-1.68,4.56c1.009,0.283,0.843-2.673,2.4-2.64c-0.572,1.763-2.725,3.629-1.44,5.76
		C64.606,78.206,67.27,76.95,67.68,73.44z"/>
	<path style="fill-rule:evenodd;clip-rule:evenodd;" d="M25.92,73.92c0.279-0.039,0.427,0.053,0.48,0.24
		c-0.588,0.931-0.69,2.35-1.92,2.64c0.218,0.871,0.708,0.146,1.44,0.24c0.258,0.968-0.81,0.51-1.44,0.72
		c-1.915,0.64-6.785,2.106-7.44-1.439c1.418,0.581,2.17,1.829,4.32,1.68c-0.039-1.081-1.754-0.486-1.68-1.68
		c1.082-0.274,2.679-0.215,4.56-0.24C24.949,75.51,25.382,74.662,25.92,73.92z M21.12,77.28c0.901,0.469,2.295,0.722,2.64-0.48
		C22.869,76.949,21.29,76.41,21.12,77.28z"/>
	<path style="fill-rule:evenodd;clip-rule:evenodd;" d="M8.4,76.08c-0.2,2.386-3.108,0.438-4.08,0C2.98,76.42,2.68,77.8,1.2,78
		c0.427-2.751,3.739-3.382,5.52-1.68C7.552,76.513,7.643,75.963,8.4,76.08z"/>
	<path style="fill-rule:evenodd;clip-rule:evenodd;" d="M36.48,75.36c-0.188,1.171-1.252,1.468-2.64,1.439
		C34.294,75.401,35.366,76.098,36.48,75.36z"/>
	<path style="fill-rule:evenodd;clip-rule:evenodd;" d="M84.24,75.36c0.24,0,0.48,0,0.721,0c-0.078,1.762-0.183,3.497-1.44,4.08
		C83.802,78.122,83.958,76.679,84.24,75.36z"/>
	<path style="fill-rule:evenodd;clip-rule:evenodd;" d="M90.72,75.84c1.327,0.136,0.485,1.104,0.72,1.68
		c1.37,3.368,6.715,4.006,10.32,3.601C99.245,83.729,89.462,80.469,90.72,75.84z"/>
	<path style="fill-rule:evenodd;clip-rule:evenodd;" d="M49.68,76.8c-0.518,1.003-2.123,0.918-3.6,0.96
		c-0.408-0.088-0.453,0.188-0.48,0.48c-1.218,0.171-2.104-1.127-3.12-1.2c-1.849-0.133-2.489,1.068-4.08,1.68
		c-0.113-0.753,0.646-0.634,0.72-1.2c-1-0.12-1.059,0.702-2.16,0.48c-0.151,1.499-0.554,1.803-0.24,3.36
		C35.46,80.902,35.252,79.024,36,78c0.891-1.222,3.536-1.905,6-1.68c2.021,0.185,2.99,1.008,5.52,0.72
		C48.358,76.944,48.847,76.374,49.68,76.8z"/>
	<path style="fill-rule:evenodd;clip-rule:evenodd;" d="M10.32,77.04c1.181-0.049,2.038,1.076,1.2,1.68
		C10.869,78.411,10.313,78.007,10.32,77.04z"/>
	<path style="fill-rule:evenodd;clip-rule:evenodd;" d="M25.68,78.24c0.645-0.166,0.464,0.496,0.72,0.72
		c1.079-0.491,1.322-0.907,2.4-0.48c-1.843,2.48-7.02,0.604-9.36,3.12c-1.172-0.181-1.489-1.122-2.88-0.479
		c-0.21-0.771,0.623-0.498,0.72-0.96c-1.094,0.396-4.37,1.746-4.56-0.48c0.864-0.063,1.156,0.443,1.92,0.48
		c1.154-0.126,2.013-0.548,2.88-0.96c0.798,0.241,2.611-0.531,2.64,0.479c-0.815,0.065-1.946-0.186-2.4,0.24
		c0.4,0.399,1.155,0.445,1.44,0.96c1.387-1.197,3.296-2.241,5.76-1.68C25.453,79.133,25.439,78.559,25.68,78.24z"/>
	<path style="fill-rule:evenodd;clip-rule:evenodd;" d="M60.96,78.72c1.018,0.407,0.181,2.821-0.96,2.641
		C60.285,80.445,60.638,79.598,60.96,78.72z"/>
	<path style="fill-rule:evenodd;clip-rule:evenodd;" d="M35.28,85.92c-0.067-0.388,0.227-0.413,0.24-0.72
		c-1.219,0.105-0.281,0.506-0.24,1.2c-0.878,0.881-2.19,1.329-4.08,1.199c0.051-1.469,2.899-0.14,3.12-1.439
		c-0.5-1.416-1.589,1.03-2.4,0c0.362-0.679,1.292-0.789,1.92-1.2c0.224-0.976,0.388-2.013,0.72-2.88c1.196,0.324,0.002,1.96,0,2.64
		c0.819,0.173,2.497-0.857,3.36-1.439c0.182-1.438-0.652-2.399-0.24-3.36c1.837,1.335,0.71,4.734-1.2,5.04
		c1.074,0.294,2.311-0.768,2.64-1.92c0.377-1.318-0.629-3.005-0.48-3.84c1.106-0.146,0.856,1.063,1.44,1.439
		c0.025,0.745-0.755,0.686-0.48,1.681c0.242,0.604,0.6-0.653,0.96-0.721c0.156,0.802-1.641,3.576-2.88,4.08
		C36.99,85.961,36.102,85.823,35.28,85.92z"/>
	<path style="fill-rule:evenodd;clip-rule:evenodd;" d="M68.4,79.2c0.112,0.747-0.604,0.857-0.96,0.479
		C67.498,79.258,67.853,79.133,68.4,79.2z"/>
	<path style="fill-rule:evenodd;clip-rule:evenodd;" d="M108.72,80.64c-0.952,1.368-3.563,1.077-4.561,2.4
		c-3.34-0.035-6.417,1.803-8.88,0c0.506-0.876,2.176,0.233,4.08,0c0.869-0.106,1.511-0.512,2.16-0.72
		c1.193,0.073,2.202-0.038,3.12-0.24c0.102-0.981-1.631-0.13-1.68-0.96c0.231-0.978,2.351-0.048,3.119,0
		C106.712,80.862,108.037,80.05,108.72,80.64z"/>
	<path style="fill-rule:evenodd;clip-rule:evenodd;" d="M12.72,80.88c0.768,0.032,1.056,0.544,0.96,1.44
		c0.335,1.024,2.932-0.212,2.64,1.439C14.663,83.362,12,83.326,12.72,80.88z"/>
	<path style="fill-rule:evenodd;clip-rule:evenodd;" d="M22.8,80.88c0.154,1.079-1.215,1.49-1.68,1.2
		C21.221,81.221,21.885,80.925,22.8,80.88z"/>
	<path style="fill-rule:evenodd;clip-rule:evenodd;" d="M18.48,81.84c-0.498,0.94-3.367,0.71-4.08,0.24
		C15.412,81.67,17.664,80.974,18.48,81.84z"/>
	<path style="fill-rule:evenodd;clip-rule:evenodd;" d="M124.32,82.32c0.097,1.424-2.513,2.714-3.12,1.199
		c0.727-0.293,1.286,0.201,2.16-0.239c0.257-0.896-0.596-0.685-0.479-1.44C123.392,81.324,124.187,81.751,124.32,82.32z"/>
	<path style="fill-rule:evenodd;clip-rule:evenodd;" d="M59.76,81.84c0.73,0.02,0.562,1.569,0.24,1.92
		C59.27,83.741,59.438,82.19,59.76,81.84z"/>
	<path style="fill-rule:evenodd;clip-rule:evenodd;" d="M19.68,82.32c-0.283,1.317-1.635,1.564-1.44,3.359
		c-0.896-0.464-2.147-0.573-3.6-0.479c-0.107-1.759,1.485-0.446,2.64-0.721C18.211,83.892,18.252,82.412,19.68,82.32z"/>
	<path style="fill-rule:evenodd;clip-rule:evenodd;" d="M41.04,82.56c0.24,0,0.48,0,0.72,0c0.222,1.822-1.253,1.947-1.44,3.36
		c-0.48,0-0.96,0-1.44,0C39.709,84.909,40.547,83.907,41.04,82.56z"/>
	<path style="fill-rule:evenodd;clip-rule:evenodd;" d="M88.56,82.56c0.747,0.454,0.645,1.756,1.439,2.16
		c1.311,0.37,2.771,0.591,4.08,0.96c1.342,3.299,5.507,3.774,8.881,5.04c-0.577,0.956-2.255,0.133-3.36-0.24
		c-2.669-0.898-4.939-1.855-6-4.319C90.925,86.225,87.404,84.744,88.56,82.56z"/>
	<path style="fill-rule:evenodd;clip-rule:evenodd;" d="M43.92,84.479c-0.242-0.154-0.826-0.146-1.68-0.239
		c-0.102-0.502,0.165-0.636,0.24-0.96c0.512-0.112,0.457,0.343,0.48,0.72c0.648-0.072,0.431-1.01,0.96-1.2
		c1.666,0.603,0.063,3.157-0.24,4.08c-0.037,0.938,1.161,3.028-0.24,3.12c0.061-1.125-0.436-2.828-0.24-3.84
		c-1.626,0.107,0.197,2.204-0.96,2.64c0.414,1.33,2.073,4.272-0.479,4.561c-0.129-0.93,0.611-0.988,0.72-1.681
		c-0.14-0.899-0.483-1.597-1.2-1.92c0.073-0.56,0.513-1.034-0.24-1.2c0.585-0.954,0.997-1.588,0.96-2.64
		C42.451,85.251,43.91,85.59,43.92,84.479z"/>
	<path style="fill-rule:evenodd;clip-rule:evenodd;" d="M56.4,83.52c0,0.32,0,0.641,0,0.96c-0.32,0-0.64,0-0.96,0
		C55.329,83.729,55.648,83.408,56.4,83.52z"/>
	<path style="fill-rule:evenodd;clip-rule:evenodd;" d="M63.36,83.52c0.356,0.204,0.516,0.604,0.48,1.2
		C63.126,84.771,62.994,83.864,63.36,83.52z"/>
	<path style="fill-rule:evenodd;clip-rule:evenodd;" d="M120.48,84c-0.8,0-1.6,0-2.4,0C118.334,83.637,120.395,82.986,120.48,84z"/>
	<path style="fill-rule:evenodd;clip-rule:evenodd;" d="M73.68,84c0.24,0,0.479,0,0.72,0c-0.17,1.789,0.887,3.096,1.44,4.8
		C74.283,88.168,73.406,85.674,73.68,84z"/>
	<path style="fill-rule:evenodd;clip-rule:evenodd;" d="M31.44,86.16c-0.049,0.831-1.323,0.437-1.92,0.72
		c0.524,2.515,3.75,0.716,5.04,1.68c-1.374,1.564-4.084,0.639-5.76,0c0.352-0.734,0.065-1.25-0.24-1.92
		c-1.043-1.041-4.715-0.825-5.04,0.96c0.382,0.974,3.291-0.396,4.32,0.48c-0.923,1.022-2.644,0.405-4.08,0.479
		c-0.499,0.062-0.066,1.055-0.48,1.2c-1.779-0.947-0.41-3.597,0.96-4.319c1.818-0.959,4.127-0.261,5.28,0.72
		C29.969,86.106,31.11,85.541,31.44,86.16z"/>
	<path style="fill-rule:evenodd;clip-rule:evenodd;" d="M36.96,88.56c0.256,1.119-0.627,1.894,0,2.641
		c-0.322,3.113-8.825,4.564-9.6,0.72c1.023-0.062,0.958,0.963,1.68,1.2c2.726,0.333,5.6,0.513,6.96-1.92
		c0.293-1.094-0.658-0.941-0.48-1.92c1.183-2.178,5.119-1.602,6-4.08c0.315-0.288,0.377-0.094,0.72,0
		C41.458,87.299,39.473,88.192,36.96,88.56z"/>
	<path style="fill-rule:evenodd;clip-rule:evenodd;" d="M80.64,84.96c0.422,0.058,0.547,0.413,0.479,0.96
		C80.373,86.032,80.262,85.316,80.64,84.96z"/>
	<path style="fill-rule:evenodd;clip-rule:evenodd;" d="M48.72,85.44c1.593,0.086,2.37,0.989,2.64,2.399
		C50.613,86.907,49.055,86.785,48.72,85.44z"/>
	<path style="fill-rule:evenodd;clip-rule:evenodd;" d="M51.36,85.44c0.32,0,0.64,0,0.96,0c-0.004,2.563,1.718,3.401,2.16,5.52
		c-1.026-0.63-0.649,0.322-1.44,0.48c0.039-0.279-0.053-0.428-0.24-0.48c-0.165-0.646,0.497-0.464,0.72-0.72
		C52.889,88.571,50.926,87.431,51.36,85.44z"/>
	<path style="fill-rule:evenodd;clip-rule:evenodd;" d="M58.32,86.16c0.388-0.067,0.414,0.227,0.72,0.24
		c0.072,0.632-0.333,0.787-0.96,0.72C57.979,86.618,58.245,86.484,58.32,86.16z"/>
	<path style="fill-rule:evenodd;clip-rule:evenodd;" d="M38.88,86.64c-0.515,0.525-1.322,0.759-2.4,0.721
		c-0.871-0.009-1.307,1.213-1.92,0.72C34.985,86.704,37.468,86.244,38.88,86.64z"/>
	<path style="fill-rule:evenodd;clip-rule:evenodd;" d="M27.36,86.88c-0.058,0.422-0.413,0.547-0.96,0.48
		C26.158,86.638,26.935,86.935,27.36,86.88z"/>
	<path style="fill-rule:evenodd;clip-rule:evenodd;" d="M48.24,87.36c0.93-0.131,0.208,1.392,0.96,1.439
		C48.572,89.72,47.402,87.906,48.24,87.36z"/>
	<path style="fill-rule:evenodd;clip-rule:evenodd;" d="M54,88.08c0.295,0.104,0.493,0.307,0.48,0.72
		C54.185,88.695,53.987,88.493,54,88.08z"/>
	<path style="fill-rule:evenodd;clip-rule:evenodd;" d="M100.08,90.72c0.127,0.193,0.251,0.39,0.24,0.721
		c-3.389,0.028-5.075-1.645-6.72-3.36C96.026,88.693,96.892,90.867,100.08,90.72z"/>
	<path style="fill-rule:evenodd;clip-rule:evenodd;" d="M77.52,88.32C77.444,89.504,76.434,88.494,77.52,88.32L77.52,88.32z"/>
	<path style="fill-rule:evenodd;clip-rule:evenodd;" d="M99.12,92.64c-0.361,1.041-2.269-0.203-3.359,0
		c-0.777-0.902-1.597-1.763-2.16-2.88c-0.763-0.277-1.953-0.127-1.92-1.2c2.262-0.681,2.739,2.192,4.319,3.12
		C97.021,92.279,98.07,91.764,99.12,92.64z"/>
	<path style="fill-rule:evenodd;clip-rule:evenodd;" d="M38.64,88.56c0.16,0,0.32,0,0.48,0c0.112,0.513-0.343,0.458-0.72,0.48
		C38.446,88.846,38.641,88.801,38.64,88.56z"/>
	<path style="fill-rule:evenodd;clip-rule:evenodd;" d="M73.2,95.52c0.037,0.598-0.377,0.743-0.479,1.2
		c1.639-1.321,3.729-2.191,5.279-3.6c-0.941-1.192,0.643-2.818-0.239-4.561c2.205,0.727,0.223,3.163,0.96,5.28
		c-1.375,1.105-3.171,1.789-4.561,2.88c-0.255,1.06,0.475,1.855,0,2.4c-0.647-0.072-0.43-1.01-0.96-1.2
		c-0.842,1.251,0.754,2.119,0.96,3.12C72.338,100.911,70.847,96.088,73.2,95.52z"/>
	<path style="fill-rule:evenodd;clip-rule:evenodd;" d="M49.68,88.8c0.424,0.216,0.701,0.579,1.2,0.72
		c-0.145,0.575-0.345,1.096-0.24,1.921c-0.814-0.387-0.887-1.514-1.92-1.681C48.937,89.337,49.604,89.363,49.68,88.8z"/>
	<path style="fill-rule:evenodd;clip-rule:evenodd;" d="M58.32,88.8c0.794,0.406,1.574,1.835,1.2,2.641
		C58.867,90.893,57.777,89.773,58.32,88.8z"/>
	<path style="fill-rule:evenodd;clip-rule:evenodd;" d="M56.16,89.04c0.24,0,0.48,0,0.72,0c0.262,1.578,1.579,2.102,1.68,3.84
		C57.367,91.993,56.63,90.65,56.16,89.04z"/>
	<path style="fill-rule:evenodd;clip-rule:evenodd;" d="M44.64,89.28c1.624,0.239,0.902,3.325-0.48,3.359
		C43.921,91.741,45.318,90.799,44.64,89.28z"/>
	<path style="fill-rule:evenodd;clip-rule:evenodd;" d="M107.76,89.76c0.214,0.106,0.429,0.211,0.479,0.48
		c-0.863,0.896-1.407,2.112-2.399,2.88c-1.717-0.364-4.957,0.796-5.521-0.72c1.631-0.563,3.473,0.299,5.28-0.24
		C106.379,91.42,106.76,90.28,107.76,89.76z"/>
	<path style="fill-rule:evenodd;clip-rule:evenodd;" d="M77.04,90c1.385,0.043,0.443,2.021-0.479,1.92
		C76.381,90.941,77.333,91.094,77.04,90z"/>
	<path style="fill-rule:evenodd;clip-rule:evenodd;" d="M34.08,90.479c0.32,0,0.64,0,0.96,0c0.111,0.752-0.208,1.072-0.96,0.961
		C34.08,91.12,34.08,90.8,34.08,90.479z"/>
	<path style="fill-rule:evenodd;clip-rule:evenodd;" d="M51.36,90.479c0.914,0.287,0.476,1.925,1.44,2.16
		c-0.34,1.34-1.307,2.054-2.64,2.4C50.558,93.303,51.652,92.291,51.36,90.479z"/>
	<path style="fill-rule:evenodd;clip-rule:evenodd;" d="M37.2,90.96c0.7-0.353,0.7,1.073,0,0.72C37.2,91.44,37.2,91.2,37.2,90.96z"
		/>
	<path style="fill-rule:evenodd;clip-rule:evenodd;" d="M54.96,90.96c0.84,0.52,1.313,1.407,1.44,2.64
		c-0.38,0.021-0.916-0.115-0.96,0.24c-0.417-0.623-0.11-1.97-1.2-1.92C54.312,91.432,54.721,91.28,54.96,90.96z"/>
	<path style="fill-rule:evenodd;clip-rule:evenodd;" d="M86.88,92.88c-1.242,0.878-3.844-0.063-4.08-1.68
		c0.213-0.187,0.542-0.258,0.96-0.24C83.926,92.979,86.255,91.625,86.88,92.88z"/>
	<path style="fill-rule:evenodd;clip-rule:evenodd;" d="M33.12,91.44c0.24,0,0.48,0,0.72,0c0,0.319,0,0.64,0,0.96
		C33.039,92.641,33.053,92.067,33.12,91.44z"/>
	<path style="fill-rule:evenodd;clip-rule:evenodd;" d="M86.4,91.68c2.386-0.842,4.046,2.324,3.84,4.08
		c-0.939-0.452-0.828-1.656-1.439-2.399C88.112,92.524,87.446,92.255,86.4,91.68z"/>
	<path style="fill-rule:evenodd;clip-rule:evenodd;" d="M46.08,92.16c0.24,0,0.48,0,0.72,0c0.039,1.318-1.052,1.508-1.2,2.64
		c-2.77,0.597-4.923,0.164-7.2,0.24c-0.186-1.146,1.979,0.06,2.16-0.72c-0.342-0.698-2.447,0.366-2.16-0.96
		C40.846,93.177,45.201,96.291,46.08,92.16z"/>
	<path style="fill-rule:evenodd;clip-rule:evenodd;" d="M49.68,92.16c0.24,0,0.48,0,0.72,0c0.047,0.688,0.03,1.31-0.72,1.2
		C49.372,93.045,49.372,92.476,49.68,92.16z"/>
	<path style="fill-rule:evenodd;clip-rule:evenodd;" d="M53.28,92.16c0.24,0,0.48,0,0.72,0c0.151,2.871-2.046,3.394-3.36,4.8
		c-0.157,1.949,1.865,2.618,0.96,4.56c-0.544-0.106-1.101-1.032-0.24-1.199c-1.071-0.743-1.81-2.364-1.2-4.08
		C51.341,95.021,53.488,94.768,53.28,92.16z"/>
	<path style="fill-rule:evenodd;clip-rule:evenodd;" d="M76.32,92.16c0.225,0.176,0.363,0.437,0.48,0.72
		c-0.276,0.844-1.183,1.058-1.681,1.68C74.392,93.581,76.131,93.02,76.32,92.16z"/>
	<path style="fill-rule:evenodd;clip-rule:evenodd;" d="M80.16,92.4c0.24,0,0.48,0,0.721,0c0.121,2.082,0.057,5.877,2.159,6.72
		c-0.479,0.401-0.798,0.961-0.96,1.68c-1.548-0.452-2.362-1.637-3.359-2.64C78.088,95.31,79.56,94.541,80.16,92.4z M80.64,97.92
		c-0.062-1.297,0.298-3.019-0.72-3.36C79.24,95.527,79.321,97.646,80.64,97.92z M80.16,99.12c0.458,0.103,0.435,0.686,1.2,0.479
		C81.436,98.851,80.25,98.318,80.16,99.12z"/>
	<path style="fill-rule:evenodd;clip-rule:evenodd;" d="M43.92,92.88c0.4,0.477-0.021,0.306,0,0.96
		C42.996,94.029,42.996,92.69,43.92,92.88z"/>
	<path style="fill-rule:evenodd;clip-rule:evenodd;" d="M59.04,92.88c0.908,0.019,1.759,0.945,1.2,1.68
		C59.423,94.451,58.708,93.387,59.04,92.88z"/>
	<path style="fill-rule:evenodd;clip-rule:evenodd;" d="M74.4,93.36c0.286,1.035-0.692,1.438-1.2,0.96
		C73.245,93.645,73.618,93.298,74.4,93.36z"/>
	<path style="fill-rule:evenodd;clip-rule:evenodd;" d="M47.28,93.6c0.102,0.502-0.164,0.636-0.24,0.96
		C46.344,94.517,46.461,93.419,47.28,93.6z"/>
	<path style="fill-rule:evenodd;clip-rule:evenodd;" d="M57.6,93.6c-0.515,1.565-1.491,2.67-2.88,3.36
		c0.374-0.986,1.118-1.602,1.92-2.16C56.657,94.097,56.727,93.447,57.6,93.6z"/>
	<path style="fill-rule:evenodd;clip-rule:evenodd;" d="M55.68,93.84c1.071,0.675-0.877,2.263-1.92,2.4
		C53.763,94.803,55.64,95.24,55.68,93.84z"/>
	<path style="fill-rule:evenodd;clip-rule:evenodd;" d="M73.2,95.52c-0.109-0.749,0.513-0.767,1.2-0.72
		C74.102,95.204,73.702,96.025,73.2,95.52z"/>
	<path style="fill-rule:evenodd;clip-rule:evenodd;" d="M38.16,95.28c0.067,0.627-0.088,1.032-0.72,0.96
		c-0.127-0.193-0.25-0.39-0.24-0.721C37.414,95.334,37.742,95.262,38.16,95.28z"/>
	<path style="fill-rule:evenodd;clip-rule:evenodd;" d="M51.36,96.72c0.794,0.406,0.573,1.827,0.96,2.641
		C51.581,98.899,51.204,98.076,51.36,96.72z"/>
	<path style="fill-rule:evenodd;clip-rule:evenodd;" d="M88.56,97.2c1.188,0.412,1.071,2.128,2.64,2.16
		C90.209,100.729,87.843,98.337,88.56,97.2z"/>
	<path style="fill-rule:evenodd;clip-rule:evenodd;" d="M69.36,101.28c0.612,0.027,1.235,0.045,1.2,0.72
		C69.926,101.994,69.056,102.224,69.36,101.28z"/>
	<path style="fill-rule:evenodd;clip-rule:evenodd;" d="M54,102.96c-0.852-0.027-1.934,0.174-1.92-0.72
		C53.026,102.299,54.146,101.451,54,102.96z"/>
	<path style="fill-rule:evenodd;clip-rule:evenodd;" d="M66,102c-0.316,0.564-0.669,1.091-0.48,2.16
		c0.232,0.808,1.645,0.436,1.44,1.68C65.141,105.554,63.485,102.677,66,102z"/>
	<path style="fill-rule:evenodd;clip-rule:evenodd;" d="M70.08,105.12c-0.867-0.148-3.355-0.604-4.08-1.68
		C67.171,103.284,69.542,103.856,70.08,105.12z"/>
	<path style="fill-rule:evenodd;clip-rule:evenodd;" d="M70.8,110.4c0.938,0.057,0.868-0.892,1.199-1.44
		c0.678,0.123,1.02,0.581,1.681,0.72c-0.201,0.279-0.316,0.644-0.24,1.2c-4.188,0.612-7.8,6.87-0.72,6.96
		c-0.985,1.824-4.684,0.005-5.04-1.92c-0.237-1.28,0.956-1.879,0.72-3.36c0.538-0.262,1.203-0.397,1.68-0.72
		c0.681-2.92-2.073-2.406-2.64-4.08C68.964,107.328,70.081,109.241,70.8,110.4z"/>
	<path style="fill-rule:evenodd;clip-rule:evenodd;" d="M60,108.24c0.388-0.067,0.413,0.227,0.72,0.239
		c0.072,0.633-0.333,0.788-0.96,0.721C59.658,108.698,59.924,108.564,60,108.24z"/>
	<path style="fill-rule:evenodd;clip-rule:evenodd;" d="M73.68,109.2c0.241-0.604,1.062,0.19,0.96,0.72
		C74.151,109.85,74.169,109.271,73.68,109.2z"/>
	<path style="fill-rule:evenodd;clip-rule:evenodd;" d="M60.96,110.4c0.792,0.008,0.917,0.683,0.96,1.439
		C61.029,111.927,60.506,110.925,60.96,110.4z"/>
	<path style="fill-rule:evenodd;clip-rule:evenodd;" d="M76.08,110.4c-0.308,1.451-1.59,1.93-2.88,2.399
		C73.628,111.468,74.853,110.934,76.08,110.4z"/>
	<path style="fill-rule:evenodd;clip-rule:evenodd;" d="M72.24,111.6C73.077,112.724,71.029,112.566,72.24,111.6L72.24,111.6z"/>
	<path style="fill-rule:evenodd;clip-rule:evenodd;" d="M92.4,28.56c-0.143-1.502,1.348-1.373,1.92-2.16
		c-0.601-0.215-1.821,0.368-2.64,0.24c-0.411-0.947-0.708-2.047,0-2.64c0.868,0.363-0.047,1.44,0.72,2.16
		c0.214-0.187,0.542-0.258,0.96-0.24c0.042-0.602-0.537-0.583-0.72-0.96c0.385-0.85,2.021,0.259,2.16-1.2
		c1.818,0.997-0.71,3.216,0.72,3.6c-0.325,0.907-1.65-0.256-2.4,0.48c0.288,0.315,0.094,0.377,0,0.72
		c1.026-0.014,1.759-0.322,2.641-0.48c-0.101,1.189,0.072,0.782,0.96,0.72c0.002,2.21,2.36,3.427,0.72,5.04
		c0.454,0.606,0.842-0.221,1.44,0.24c-1.051,0.95-1.243,2.757-1.681,4.32c-1.417,0.263-1.877,1.483-2.64,2.4
		c-1.863,0.244-3.194-0.787-5.04-1.2c-0.168-0.739-0.168-0.461,0-1.2c-1.228-1.173-4.105-0.694-4.56-2.64
		c1.493,0.385,3.006,1.902,5.039,0.96c-1.052-1.268-4.864,0.224-4.8-2.16c-0.428-0.772-2.09-0.31-1.92-1.68
		c1.578,0.183,2.376,1.145,2.88,2.4c1.819,0.101,3.245,0.596,5.04,0.72c-0.126-0.914-1.413-0.667-2.399-0.72
		c-0.966-1.434-3.323-1.477-4.32-2.88c0.729-0.609,1.12,0.657,2.4,0.24c0.542-0.207,0.882-1.25,0.479-1.68
		c-1.022,0.018-1.679,0.401-2.88,0.24c-0.457-0.663-0.672-1.568-0.96-2.4c0.923,0.197,2.053,0.188,2.16,1.2c-0.32,0-0.641,0-0.96,0
		c1.521,1.083,2.789-0.445,4.8-0.48c-0.417-0.878-0.209-2.185,1.2-1.92c-0.043,1.077-0.415,1.825-0.96,2.4
		c1.123,0.74,2.571-1.125,3.6-0.48c0.181,0.901-0.917,0.523-0.96,1.2c0.423,0.25,1.771-0.621,2.4-0.96
		C94.108,29.252,93.305,28.854,92.4,28.56z M96.72,31.44c-0.003-0.877-0.475-1.286-0.96-1.68
		C95.328,30.313,96.318,30.979,96.72,31.44z M88.08,31.68c0.178,0.383,1.175-0.055,0.96,0.72c-0.755-0.115-0.938,0.342-1.439,0.48
		c0.479,0.961,1.235,1.645,2.64,1.68c-0.036-1.164-1.804-0.596-1.92-1.68c1.606-0.152,2.219,1.364,4.08,1.2
		c-0.004,0.396-0.666,0.134-0.72,0.48c0.84,0.04,1.536-0.064,1.92-0.48c-0.936-1.438-2.892-0.446-3.84-1.68
		c0.652-0.563-0.241-1.184,0.96-1.2c-0.237,1.062-0.037,0.628,0.24,1.44c0.598-0.202,1.285-0.314,2.159-0.24
		c0.745,0.696,1.143,1.738,2.16,2.16c0.18-0.74-0.827-0.292-0.479-1.2c0.389,0.361,1.771,0.361,2.16,0
		c0.124-1.242-0.733-1.103-1.2-1.44c-0.112-0.081-0.129-0.608-0.24-0.72c-1.014-1.014-3.168,0.737-4.08,0.96
		c0.021-0.897,0.27-0.684,0-1.44C89.909,30.628,88.599,30.759,88.08,31.68z M96.24,34.32c-0.709,0.209,0.557,0.359,0.24,0.96
		c-0.241,0-0.285,0.195-0.48,0.24c-2.7-0.937-3.543,1.835-6,1.92c-0.207,1.625,1.08,0.327,1.681,0.96
		c-1.119-1.542,2.079-1.542,0.96,0c0.454-0.054,0.529,0.271,0.96,0.24c0.646-0.624-0.294-0.724-0.24-1.44
		c0.241,0,0.286-0.194,0.48-0.24c0.358-0.004,0.981,0.892,1.199,0.24c-0.367-0.433-0.88-0.72-1.439-0.96
		c2.082,0.288,3.505,0.233,3.6-1.92C96.845,34.042,96.595,34.042,96.24,34.32z M91.68,39.6c0.385-0.668-1.037-0.664-0.96-0.24
		C91.173,39.306,91.25,39.63,91.68,39.6z"/>
	<path style="fill-rule:evenodd;clip-rule:evenodd;" d="M87.12,24.96c0,0.32,0,0.64,0,0.96c-0.783-0.664-1.591,0.186-1.68,0.96
		c-0.791-0.008-0.917-0.683-0.96-1.44C85.575,26.33,85.967,25.243,87.12,24.96z"/>
	<path style="fill-rule:evenodd;clip-rule:evenodd;" d="M87.6,26.88c-0.183,0.617-0.583,1.018-1.2,1.2
		C86.068,28.677,86.784,26.681,87.6,26.88z"/>
	<path style="fill-rule:evenodd;clip-rule:evenodd;" d="M50.4,39.12c0.043-0.523-0.196-0.764-0.72-0.72
		c0.592-1.248,0.985-2.694,2.64-2.88c0.332,0.958-0.886,1.021-1.2,1.68c-0.782,1.64-0.3,4.03-2.16,4.8
		c-1.007,0.032-1.341-0.437-2.16,0c0.571,1.521,0.784,3.678-1.44,3.6c0.023-0.938,1.172-0.749,1.2-1.68
		c-0.425-1.189-0.865-1.626-0.24-2.88c1.667,0.352,2.769-0.774,3.12-2.4c0.981,0.376-0.296,1.696-0.48,2.4
		c-0.044,0.204,0.094,0.227,0.24,0.24C49.584,40.545,49.995,39.835,50.4,39.12z"/>
	<path style="fill-rule:evenodd;clip-rule:evenodd;" d="M52.32,40.56c0.006,0.886-0.107,1.652-0.96,1.68
		c-0.098,0.578,0.438,0.521,0.24,1.2c0.851,0.051,0.474-1.126,1.44-0.96c0.178,0.979-0.773,0.827-0.48,1.92
		c0.461,0.579,2.064,3.205,0,3.36c0.975-1.924-0.897-1.997-0.96-4.08c-0.532,0.508-0.598,1.482-1.68,1.44
		c-0.328-1.048,0.929-0.511,0.72-1.44c-0.062-0.562-1.055-0.139-1.2,0c-0.711,2.875-5.169,4.339-8.64,2.88
		c-1.418,0.382-2.82,1.924-3.84,1.92c-0.14-0.564,0.722-1.93-0.96-1.92c-0.005-0.565,0.414-0.707,0.24-1.44
		c-1.181,0.178-1.925,0.795-1.68,2.4c-1.225,1.012-4.013,1.481-6,0.96c-0.595-0.765-0.952-1.768-1.92-2.16
		c-0.822,0.378-1.608,0.792-2.16,1.44c-0.116,0.756,0.737,0.543,0.48,1.44c-2.746-0.787,0.032-3.554,1.44-3.84
		c1.922,0.98,2.857,2.036,5.04,0.96c0.484-1.546-0.623-1.821-0.48-3.6c0.722-0.159,0.838-0.922,1.92-0.72
		c0.076,0.956-1.11,0.65-1.2,1.44c1.036-0.244,1.357-1.202,2.64-1.2c0.508-1.493,2.232-1.769,3.36-2.64
		c-0.328,1.048,0.929,0.511,0.72,1.44c-0.996,0.052-1.707,0.532-1.2,1.44c-2.075-0.655-3.803,0.521-4.56,1.92
		c0.061,0.819,0.606,1.153,0.48,2.16c-0.583,0.458-1.451,0.629-2.16,0.96c0.792,1.13,2.531-0.351,3.12-0.96
		c0.005-0.565-0.414-0.707-0.24-1.44c0.963-0.877,2.737-1.335,4.32-1.2c0.844,0.072,2.534,0.364,2.88,1.2
		c-1.004,0.288-1.863,0.25-2.64-0.24c-0.575-0.095,0.133,1.093-0.72,0.72c-0.037,0.597,0.377,0.743,0.48,1.2
		c1.251-0.588,2.581-1.099,4.08-1.44c0,0.32,0,0.64,0,0.96c3.223,0.13,5.358-0.464,6.72-2.64c0.103-0.674-0.895,0.602-0.96-0.24
		c-0.007-0.807,1.111-0.489,1.44-0.96c0.704-0.656,1.126-1.594,1.68-2.4c0.644,0.974-0.793,1.92-1.2,2.64
		C51.492,43.725,50.989,40.594,52.32,40.56z M30.48,48c-0.049-0.831-1.323-0.437-1.92-0.72C28.546,48.173,29.628,47.972,30.48,48z"
		/>
	<path style="fill-rule:evenodd;clip-rule:evenodd;" d="M54.48,44.88c-0.336-0.021,2.079-0.536,2.64-0.24
		c-0.034,1.006-1.1,0.98-2.16,0.96C54.971,45.189,54.782,44.979,54.48,44.88z"/>
	<path style="fill-rule:evenodd;clip-rule:evenodd;" d="M84,45.36C85.156,45.961,84.284,46.833,84,45.36L84,45.36z"/>
	<path style="fill-rule:evenodd;clip-rule:evenodd;" d="M32.64,73.44c-0.113-1.12-1.632,0.408-2.16-0.48
		c0.905-1.088,3.828-0.381,4.08-2.16c-1.188,0.172-1.794,0.926-3.36,0.72c0.114-1.165,1.903-0.656,2.64-1.199
		c0.856-1.225,1.653-2.508,2.88-3.36c-0.316-0.605-0.788,0.629-1.44,0.48c0.124-1.077,1.418-0.982,1.92-1.681
		c-0.238-0.299-1.878,0.028-2.4,0.24c0.039,0.281,0.438,0.202,0.72,0.24c-0.309,0.411-0.496,0.943-1.2,0.96
		c0.315-0.745-0.065-0.686,0-1.681c0.608-0.752,2.433-0.287,3.12-0.96c1.823,3.003-2.505,3.418-2.64,6
		c1.569,0.152,0.121-1.286,1.44-1.199c0.299,1.361-1.02,1.424-1.44,2.64c0.692,0.695,0.751-0.468,1.68-0.24
		c-0.345,1.335-1.899,1.461-2.88,2.16c-1.584,1.536-2.387,3.854-3.12,6.24c0.131,0.968,0.799,2.078,0,2.64
		c0.284,0.591,0.907-0.491,1.2,0.24c-0.893,0.941-1.622,0.026-3.12,0.479c0.469,1.02,1.828,0.602,3.36,0.96
		c1.452-0.631,1.999-3.777,0.72-5.039c0.037-0.764,0.544-1.057,0.48-1.921c0.734-0.174,0.706,0.415,1.44,0.24
		c-0.263,3.097-0.255,7.989-3.6,7.44c-2.277-0.374-5.377-1.662-6.96-3.12c1.09-1.984,1.894,1.728,3.6,1.439
		c0.803-0.557,2.055-0.664,2.88-1.199c-0.559-0.697-1.293,0.45-2.16,0.239c-0.301-1.341,1.339-0.74,1.68-1.439
		c-0.074-0.566-0.833-0.446-0.72-1.2c1.64-0.35-0.067-1.438,1.2-2.16c-0.923,0.189-2.127,0.042-3.84,0.24
		c-0.375-0.404,0.289-1.078-0.48-1.44c0.489-0.551,1.993-0.086,2.88-0.239c-0.067,0.627-0.081,1.201,0.72,0.96
		c0.708-0.209-0.557-0.359-0.24-0.96c1.377-0.063,2.308-0.572,2.64-1.681c-0.864,0.085-1.157,0.367-1.92,0
		C30.266,73.466,32.117,74.117,32.64,73.44z M32.16,74.4c0.694-0.106,1.094-0.507,1.2-1.2C32.543,73.183,32.466,73.906,32.16,74.4z
		 M33.84,72.72c0.702,0.063,0.922-0.931,0.24-0.96C34.004,72.085,33.738,72.219,33.84,72.72z M33.84,79.68
		c-0.001-0.429,0.646-1.396,0-1.68C33.686,78.519,32.941,79.493,33.84,79.68z"/>
	<path style="fill-rule:evenodd;clip-rule:evenodd;" d="M99.36,79.92c-0.423,0.212-0.396,1.064-0.96,0.48
		c0.238-1.951,3.334,0.497,4.8-0.721c-0.218-0.871-0.708-0.146-1.439-0.239c0.326-0.874,1.712-0.688,2.399-1.2
		c-0.471-0.221-2.319,0.232-2.64,0.96c-1.604,0.163-2.215-0.666-3.36-0.96c-0.314-0.745,0.065-0.686,0-1.681
		c-1.739-1.221-5.657-1.541-5.04-4.319c0.824,0.759,1.031,1.712,2.16,2.16c0.264,0.104,0.971-0.269,1.2-0.24
		c1.326,0.164,2.847,0.817,3.84-0.24c0.342-0.778,0.101-2.14,1.2-2.16c0.241,1.105-0.68,2.953-1.92,3.36
		c1.035,0.653,1.835-2.084,3.36-0.96c-1.005,1.1-2.652,1.925-4.08,1.92c-0.153,1.113,0.435,1.484,0.96,1.92
		c1.505,0.31,2.97-0.787,4.319-0.72c1.514,0.075,2.39,1.123,3.84,1.439c1.201-1.455,3.084-0.975,4.801-0.96
		c0.021,0.341,0.039,0.68-0.24,0.72c1.782,1.046,3.088,3.507,5.28,3.841c1.065,0.162,1.572-0.639,2.64-0.24
		c-0.094,1.426-2.208,0.831-3.6,0.96c-1.816-1.145-3.302-2.619-4.801-4.08c-0.82,0.219-1.486,0.593-2.399,0.72
		c-0.206-1.005,1.074-0.525,1.439-0.96c-0.43-1.074-1.856-0.052-1.92,0.721c-1.857,0.337-2.558-0.482-3.84-0.721
		C103.821,79.392,101.3,81.926,99.36,79.92z M98.64,75.12C97.112,75.814,99.553,74.705,98.64,75.12L98.64,75.12z"/>
	<path style="fill-rule:evenodd;clip-rule:evenodd;" d="M111.6,81.12c-0.917,0.037-1.748-0.013-2.16-0.48
		c0.881-1.204,2.788,0.516,3.6,0.96c0.068,0.388-0.227,0.413-0.239,0.721c1.936,3.057,8.283,2.656,11.76,1.68
		c-1.043,1.403-3.307,1.703-5.76,1.68c-3.661-0.034-7.366-2.646-10.08-2.16c-1.203,0.216-1.694,1.429-2.88,1.681
		c0.726-2.42,4.519-3.007,6.96-1.681C113.4,82.67,111.329,82.439,111.6,81.12z"/>
	<path style="fill-rule:evenodd;clip-rule:evenodd;" d="M53.04,71.52c0.388-0.067,0.413,0.228,0.72,0.24
		c-0.311,3.69-0.451,7.55-4.08,7.92c0.054,0.346,0.716,0.084,0.72,0.48c-0.187,1.013-1.676,0.724-2.64,0.96
		c-1.971,0.829,0.225,5.824-2.64,5.76c-0.294-1.095,0.841-0.758,0.96-1.439c-0.13-1.57,0.148-2.732,0.24-4.08
		c-0.794,0.246-0.113,1.967-1.2,1.92c-0.745-5.385,6.66-2.62,7.2-6.721c-0.902,0.622-3.128,3.268-5.76,2.16
		c0.346-1.025,1.449-0.298,2.16-0.479c1.424-0.364,2.718-1.388,3.12-2.641c-0.309-0.671-0.496,0.757-1.2,0.48
		c0.897-1.068-4.906,1.148-5.28-0.96C48.401,75.783,52.633,74.924,53.04,71.52z M52.56,75.84c0.03-0.526,1.019-2.122,0-2.16
		C52.141,74.184,51.773,75.44,52.56,75.84z"/>
	<path style="fill-rule:evenodd;clip-rule:evenodd;" d="M66.96,100.08c-0.979,0.144-0.972,1.081-1.92,1.439
		c-1.629,0.616-3.758-0.225-4.56,1.2c0,0.561,0,1.12,0,1.681c-2.001,0.881-1.135,2.093-2.64,2.88
		c-0.875,0.457-2.616,0.534-3.6,0.479c-1.684-0.094-3.869-1.808-4.56,0.24c0.045,0.194,0.241,0.239,0.24,0.479
		c0.919,0.162,0.907-0.548,1.92-0.479c1.454,0.098,2.133,2.004,3.6,2.16c0.885-0.235,1.189-1.051,1.92-1.44
		c-0.103-0.536-1.183-0.097-1.68-0.24c-0.113-0.54,1.302-0.739,1.44-0.239c0.51-0.689,1.62-0.78,2.64-0.96
		c0.615-0.505,0.252-1.988,0.96-2.4c0.742-0.013,0.456,1.714,0.24,2.16c-0.312,0.645-1.321,0.634-2.16,1.2
		c-1.744,1.177-2.034,2.742-3.84,2.64c-1.756-0.1-2.066-2.483-3.84-1.92c-0.28,1.08,1.341,0.259,0.96,1.44
		c-1.154,0.193-0.867-1.054-2.16-0.721c0.573,1.366,2.062,1.034,2.16,2.4c0.138,1.935-3.133,3.513-4.8,1.68c0-0.56,0-1.12,0-1.68
		c1.137-0.018,0.458,1.782,1.68,1.68c0.941-0.118,2.08-0.461,2.16-1.439c0.136-1.655-2.063-1.104-2.88-2.4
		c-1.259-1.999,0.759-4.034,3.36-3.84c0.56-4.64-4.468-3.692-4.8-7.44c0.589-1.091,1.363-1.997,2.64-2.399
		c0.036,1.155-1.222,1.018-1.44,1.92c-0.316,4.077,5.461,3.338,4.08,7.68c0.706,1.134,2.292,1.388,4.32,1.2
		c-0.444-1.034,0.971-1.517,1.68-2.64c-1.01-1.557-3.311-3.189-2.88-5.761c0.25-1.49,1.497-2.315,3.12-2.88
		c-0.039,1.641-2.154,1.206-2.4,2.641c0.297,1.921,0.755,3.704,2.4,4.8c0.003-0.899-0.033-3.423,1.68-3.36
		c-0.436,1.128-1.721,3.269-0.72,4.32c1.076-0.561,0.045-3.307,2.4-3.12c0.095-0.575-1.093,0.133-0.72-0.72
		c1.15-0.883,2.303-0.765,2.64-2.16c0.3-1.241-1.27-2.191-0.24-3.12c0.77,0.395,0.612,0.803,0.48,1.68
		c0.193-0.127,0.39-0.25,0.72-0.24c0.613-1.259-0.719-2.636-1.92-2.88c-0.126-1.472-2.488-2.325-3.12-3.84
		c-0.795-1.904-0.273-4.456,1.92-5.28c-0.043,1.077-0.842,1.398-1.2,2.16c-1.001,4.645,3.923,5.345,5.28,7.92
		c0.471,0.895,0.183,1.956,0.48,2.881c0.538,1.676,1.736,2.91,3.12,3.6C68.283,102.437,67.768,100.217,66.96,100.08z M65.04,99.12
		c-0.951-0.074,0.269-0.834-0.72-0.72c-0.049,1.391-1.241,1.639-1.92,2.399c1.828-0.172,3.815-0.185,3.6-2.399
		c-0.307-0.014-0.333-0.308-0.72-0.24C65.239,98.52,65.366,99.046,65.04,99.12z M57.84,106.32c0.149-0.502,1.231-0.902,0.24-1.2
		C58.01,105.404,57.113,106.026,57.84,106.32z M49.44,109.44c0.383-0.361-0.007-1.011-0.48-1.2
		C48.925,108.835,48.916,109.404,49.44,109.44z"/>
	<path style="fill-rule:evenodd;clip-rule:evenodd;" d="M47.52,90c-0.739,0.168-0.461,0.168-1.2,0c0.631-1.379-0.406-1.601-0.96-2.4
		c0.36-0.279,0.587-0.692,1.2-0.72c-0.33,1.365,0.949,1.305,0.96,2.88c0.32,0.4,1.067,0.373,1.44,0.72
		c0.022,1.383,0.052,2.772-1.2,2.881c-0.536-0.606,0.524-1.072,0.479-1.92C48.449,90.511,47.192,91.048,47.52,90z"/>
	<path style="fill-rule:evenodd;clip-rule:evenodd;" d="M70.32,102.479c1.273-0.153,1.248,0.992,2.16,1.2
		c0.693-0.631-0.145-1.761-1.2-1.439c0.919-0.917-0.79-0.991-1.439-1.44c-1.323-0.913-2.83-3.12-2.64-5.04
		c0.138-1.402,2.034-5.17,4.08-4.319c0.067,0.867-1.051,0.549-1.439,0.96c-0.031,0.43,0.294,0.506,0.239,0.96
		c-1.56,0.52-1.872,2.287-1.68,4.56c0.971,0.011,0.283-1.637,1.44-1.44c-0.03,0.851-0.395,1.366-0.72,1.921
		c0.549,1.131,1.184,2.176,2.64,2.399c-0.667-0.588-3.335-4.38,0.239-5.28c-3.525,4.107,3.121,6.007,4.32,9.12
		c-0.217,1.703,0.206,4.047-1.2,4.561c-0.006-0.233-0.293-0.187-0.479-0.24c1.313-2.271-0.361-4.209-2.16-4.8
		c-0.468,1.116,1.322,3.31,0.72,4.56c-1.409,0.449-0.157-1.763-1.2-1.68c-0.879,0.241-0.441,1.799-1.68,1.68
		c-0.372-0.803,0.788-1.852,1.68-2.16c-0.787-0.93-0.063-2.096-0.479-3.119C71.332,102.908,70.035,103.485,70.32,102.479z
		 M73.68,104.4c1.073,0.047,1.362,0.877,2.16,1.199c-0.29-1.71-1.871-2.129-2.641-3.359C73.402,102.919,73.479,103.722,73.68,104.4z
		"/>
	<path style="fill-rule:evenodd;clip-rule:evenodd;" d="M85.68,81.84c0.162,1.748,1.102,1.928,0.96,4.32
		c1.07,1.752,2.844,1.949,4.08,3.84c1.079,1.649,0.939,3.979,1.92,5.52c1.213,1.908,4.101,2.688,6.96,1.921
		c0.479-0.578-0.419-1.162,0.24-1.681c1.04-0.16,0.646,1.114,0.72,1.92c-1.63,2.029-7.566,0.879-9.12-1.2
		c-0.692-0.926-0.344-2.505-0.96-3.6c-0.852-1.512-2.581-1.265-3.84-2.16c-1.035-0.736-1.849-2.193-1.92-3.359
		c1.155,0.124,1.123,1.437,1.68,2.159c1.271,0.811,2.848,1.313,4.08,2.16c-0.423-2.773-3.872-3.336-4.8-5.76
		c-0.51-1.332,0.364-2.903-1.2-3.84C84.7,81.274,84.926,81.961,85.68,81.84z"/>
	<path style="fill-rule:evenodd;clip-rule:evenodd;" d="M78.24,99.36c0.993-0.113,0.638,1.122,0.96,1.68
		c1.357,0.496,2.344,0.892,4.08,0.479c1.638,1.592,3.33,3.89,7.2,2.4c-0.178,1.583-2.124,1.396-3.84,1.44
		c-1.4-0.84-2.562-1.919-3.601-3.12c-1.119,0.399-2.028,1.011-3.84,0.72c-0.472-0.728-1.287-1.112-1.68-1.92
		C77.391,100.11,78.131,100.052,78.24,99.36z"/>
	<path style="fill-rule:evenodd;clip-rule:evenodd;" d="M84,14.16c-0.757-0.118-0.847,0.432-1.68,0.24
		c0.187-0.213,0.258-0.542,0.24-0.96c-1.446,0.167-2.112-0.447-2.64-1.2c-0.757-0.116-0.544,0.736-1.44,0.48
		c0.1-1.366-0.939-1.224-1.92-0.96c-0.209-0.769,0.369-0.75,0.72-0.96c-2.021-1.292-3.878-3.228-6.96-2.16
		c0.234,0.62,0.508,1.9-0.479,1.92c0.003-1.036-0.441-1.345,0.239-1.92c-0.059-0.261-0.477-0.163-0.479-0.48
		c-0.771,0.189-1.049,0.871-1.68,1.2c-0.716-0.164-1.469-0.291-1.68-0.96c-1.594,0.813-2.402,0.28-3.84,0.48
		c-0.098,0.578,0.438,0.522,0.24,1.2c-1.035-1.19-2.032,0.043-4.08-0.24c-0.451,0.458,0.143,0.435,0,1.2
		c-1.754-0.074-3.164,0.197-3.6,1.44c-1.189-0.149-1.271,0.809-2.64,0.48c-1.75,1.53-4.143,2.417-4.8,5.04
		c-2.62-0.7-1.595,2.245-3.6,2.16c-0.159,1.194-0.723,1.888-0.24,3.12c-0.631,0.41-1.499,0.582-2.16,0.96
		c-0.036,0.756,1.339,0.101,0.96,1.2c-1.757-1.102-1.317,1.206-3.36,1.44c0.584,1.243,1.991,3.28,0.96,4.08
		c0.078,0.562,1.047,0.233,1.2,0.72c-0.612,0.835-2.967,0.733-3.6,0.96c0.368,0.912,2.126,0.433,2.16,1.68
		c-0.875,0.156-1.278-0.162-1.68-0.48c-0.121,0.309-0.254,0.497-0.48,1.2c0.084,0.315,0.422,0.377,0.48,0.72
		c1.239,0.133,2.401-2.602,3.12-0.72c-0.76,0.28-1.889,0.19-2.16,0.96c0.196,0.583,1.265-0.476,1.68,0.24
		c0.019,1.152-3.21,1.435-2.4,0c-0.947-0.308-0.581,0.699-1.2,0.72c-0.074,0.554,0.693,0.267,0.72,0.72
		c0.095,1.271-1.749,2.418-1.92,0.72c0.38-0.02,0.916,0.116,0.96-0.24c-0.045-1.044-0.417-0.437-1.2-0.48
		c-0.004-1.386-0.288-3.758,1.2-5.04c-0.218-0.657-0.841,0.426-1.2-0.24c0.872-0.905-0.014-2.317,0.479-3.6
		c0.755-0.115,0.938,0.342,1.44,0.48c-0.563,0.965,0.086,1.506,0.72,1.92c0.651-0.149,0.598-1.003,1.44-0.96
		c-0.973-0.627-1.351-1.849-2.64-2.16c-0.005-0.565,0.413-0.707,0.24-1.44c0.501,0.102,0.636-0.165,0.96-0.24
		c-0.342-0.32-0.342-1.36,0-1.68c0.853-0.374,0.145,0.815,0.72,0.72c1.341-0.259,0.852-2.348,2.4-2.4
		c-0.344-1.084,0.157-1.866-0.48-2.88c1.579-0.367,0.834-2.215,1.92-2.64c-1.156-2.137,0.289-3.25,0.24-5.76
		c3.13-2.389,7.944-3.095,9.6-6.96c1.494,0.292,3-1.303,4.8-1.44c0.374-0.028,0.44,0.289,0.72,0.24
		c0.61-0.107,1.183-0.586,1.92-0.72c1.25-0.227,3.025,0.481,3.84-0.72c1.805,1.155,3.949,1.971,6.72,2.16
		c3.726,1.875,6.93,4.271,9.359,7.44C81.841,12.159,83.596,12.484,84,14.16z M64.8,4.08c-1.979-0.237-4.119,0.493-6,0.72
		c-1.359,0.164-3.229-0.44-3.84,0.96c2.223,0.355,4.614-0.791,6.72-0.48c0.999,0.147,1.425,1.02,2.4,1.2
		C64.073,6.479,64.656,5.989,64.8,6c0.093,0.007,0.502,0.509,0.72,0.48c0.405-0.053,0.965-0.69,1.44-0.72
		C65.721,5.719,65.612,4.548,64.8,4.08z M53.04,9.36c0.377-0.023,0.832,0.032,0.72-0.48c-0.16,0-0.32,0-0.48,0
		C53.281,9.121,53.085,9.166,53.04,9.36z M46.56,13.68c-0.999,0.281-1.839,0.721-1.92,1.92c2.595-1.485,4.175-3.985,6.72-5.52
		c0.133,0,0.272-0.194,0-0.24C48.85,10.21,47.846,12.086,46.56,13.68z M52.08,11.28c0.24,0,0.48,0,0.72,0
		c0.067-0.547-0.058-0.902-0.48-0.96C52.374,10.774,52.049,10.85,52.08,11.28z M44.4,13.2c0.771-0.35,1.562-0.679,1.68-1.68
		C45.021,11.581,44.829,12.508,44.4,13.2z M46.32,15.84c0.988-0.457,2.977-1.176,2.88-1.92C48.19,14.51,47.039,14.958,46.32,15.84z
		 M38.4,31.68c-0.284-0.276-0.848-0.272-1.44-0.24C36.622,32.206,38.396,32.046,38.4,31.68z"/>
	<path style="fill-rule:evenodd;clip-rule:evenodd;" d="M82.08,21.36c0.19,2.082-3.05-0.219-2.88,1.44
		c-0.82,0.101-1.367-0.072-1.2-0.96c0.429-0.352,0.94,0.151,1.44-0.48c-0.429-0.321-1.865-0.266-0.96-1.2
		c-1.47,0.173-2.716,0.196-4.08-0.24c-0.146-1.344,0.785-0.425,1.44-0.48c1.82-0.153,3.747-0.587,4.8-1.92
		c-0.153-0.549-0.477-1.448,0-1.92c-0.309-0.671-0.496,0.756-1.2,0.48c-0.28-1.24,0.67-1.25,1.44-1.44
		c-0.068,0.388,0.227,0.413,0.239,0.72c0.695-0.825,3.132,0.092,3.12-1.44c0.983,0.233,1.538-0.594,2.16,0
		c-1.476,1.78-3.421,1.124-5.52,2.4c1.379,0.753,0.428,3.011-1.2,2.88C81.518,19.309,80.691,21.238,82.08,21.36z"/>
	<path style="fill-rule:evenodd;clip-rule:evenodd;" d="M55.68,32.64c1.557,0.546,2.947-0.115,3.84,1.2
		c1.217-0.857,2.987-0.108,4.32-0.48c-0.232,1.032,0.936,0.665,1.2,1.2c0.732,0.013,0.576-0.864,1.44-0.72
		c-0.068,1.519-1.58,1.224-2.64,1.2c0.041,0.68,0.44,1,0.48,1.68c-2.019-1.079-5.711,0.87-7.2-0.96c-0.836,0.549-3,1.327-3.36-0.24
		c0.679,0.205,1.041-0.609,1.68-0.72c1.08-0.188,2.543,0.751,3.6-0.48C57.733,33.419,56.121,34.303,55.68,32.64z M60.24,35.04
		c-0.212-0.185-0.685,0.147-0.72,0.24C59.181,36.185,60.714,35.452,60.24,35.04z"/>
	<path style="fill-rule:evenodd;clip-rule:evenodd;" d="M74.88,32.88c0.22,1.02-0.575,1.025-1.44,0.96
		c0.56,1.276,2.284,0.327,2.88,1.2c1.192-0.922,2.292,0.082,3.36-0.24c-0.572,1.296,0.412,0.792,0.72,1.68
		c-1.63-0.027-2.987,0.619-3.84-0.48c-1.339,0.256-4.121,1.252-4.561-0.72c-0.866,0.014-1.161,0.599-1.92,0.72
		c0.775,0.505,1.334,1.227,2.16,1.68c1.383-0.378,3.385-0.136,4.561-0.72c0,0.32,0,0.64,0,0.96c-0.769,0.228-1.418,0.056-2.641,0.24
		c-0.626,0.791-0.661,0.746-1.439,1.2c-0.804-0.217-0.21-0.537,0-0.96c-2.112-0.391-4.683-1.526-4.56-3.36
		c1.083-1.127,2.26-2.358,3.839-1.2C73.355,33.915,73.54,32.819,74.88,32.88z"/>
	<path style="fill-rule:evenodd;clip-rule:evenodd;" d="M41.28,52.32c0.068,0.388-0.227,0.414-0.24,0.72c0.32,0,0.64,0,0.96,0
		c0.187-0.209-0.091-1.062,0.96-0.96c0.844,0.543-0.772,1.055,0,1.44c-1.207,0.643-2.511-0.137-3.84,0
		c-1.305,0.134-2.34,1.223-3.36,0.72c0.39-0.97,1.708-1.012,2.88-1.2c-0.753-0.814-3.196,0.212-3.6-1.44
		C36.774,51.266,38.786,52.625,41.28,52.32z"/>
	<path style="fill-rule:evenodd;clip-rule:evenodd;" d="M41.76,54.48c0.24,0,0.479,0,0.72,0c0.304,1.583-0.984,1.576-1.2,2.64
		c0.534,0.672,1.334-0.41,1.44-0.96c0.806-0.247,0.374,0.746,0.48,1.2c-0.717,0.029-0.711,0.286-1.68,0.48
		c2.075,2.451,3.036-1.708,5.04-2.16c-0.662,1.258-1.418,2.421-2.4,3.36c0.41,0.7,0.874-0.544,1.68-0.24
		c0.175,0.655-0.477,0.483-0.48,0.96c1.391-0.689,2.567-1.593,3.84-2.4c-0.492-1.597,0.353-3.113,1.92-3.36
		c-0.001,0.959-0.877,1.043-1.2,1.68c0.215,1.318-0.038,1.624,0.24,2.88c-1.796,2.37-9.466,2.993-10.56-0.48
		c0.284-0.276,0.848-0.271,1.44-0.24c0.112-0.512-0.343-0.457-0.72-0.48C40.815,56.416,41.474,55.634,41.76,54.48z M47.28,59.52
		c0.967-0.002,2.284-0.904,1.92-1.44C48.938,58.938,47.762,58.882,47.28,59.52z M42.24,59.04
		C41.432,58.311,41.512,59.927,42.24,59.04L42.24,59.04z"/>
	<path style="fill-rule:evenodd;clip-rule:evenodd;" d="M26.64,69.6c0.175,0.995-2.553,2.043-0.48,2.641
		c-0.807,0.794-0.64,2.56-2.4,2.399c-0.175-0.654,0.477-0.482,0.479-0.96c-0.508-0.669-0.697-0.166-1.44-0.479
		c-0.083-0.964,1.127-0.633,1.44-1.2C24.314,70.474,25.275,69.835,26.64,69.6z"/>
	<path style="fill-rule:evenodd;clip-rule:evenodd;" d="M59.28,73.68c1.279,2.761,1.088,6.849-1.2,8.4
		c-0.497-1.287,1.402-2.067,1.2-3.84c-0.54,0.26-0.091,1.509-1.2,1.2C58.609,77.649,59.092,75.812,59.28,73.68z"/>
</g>
</svg>
